<svg width="100" height="101" viewBox="0 0 100 101" fill="none" xmlns="http://www.w3.org/2000/svg">
<path d="M0.459189 23.8222C-0.781396 29.3411 1.13505 34.9141 1.22683 40.4653C1.30439 45.0621 1.30247 49.6477 0.791051 54.2194C0.610036 55.8307 0.442434 57.523 0.747472 59.131C1.42125 62.6829 3.78628 61.0827 4.15322 62.5325C4.43103 63.6301 1.88154 66.4123 1.42125 67.4307C-0.132388 70.8746 2.02997 70.8661 2.65147 73.7885C2.05484 78.5612 2.43113 92.0429 3.5867 93.8229C4.99999 96 4.49998 92 11.7256 98.8054C15.7975 101.477 23.4612 99.8586 27.9128 99.1607C38.9048 97.4334 48.5352 97.9713 59.5803 99.628C63.5227 100.225 67.4444 97.9054 71.259 99.011C73.0725 99.5369 74.5777 100.63 76.4918 100.849C81.0678 101.365 90.9097 100.306 94.2377 97.4469C96.7306 95.2998 98.8822 90.8213 99.0748 87.5527C99.1865 85.6341 98.4847 84.383 97.7038 82.7186C97.2541 81.7464 99.4703 81.0338 99.6647 79.7014C100.607 73.228 98.6535 67.5233 98.3507 61.2312C98.0602 54.9148 99.8249 48.6071 99.5105 42.2183C99.202 35.9617 98.0044 29.7252 98.4043 23.4447C98.6404 19.6586 100.435 15.4057 99.0748 11.683C98.0467 8.87399 95.5432 5.99704 93.108 4.28342C87.0906 0.063502 78.8799 1.21387 71.9361 1.08425C68.2457 1.01603 64.3005 2.75078 60.8004 2.35515C53.8568 1.57159 43.5754 2.33768 36.4742 2.82036C34.9054 2.92824 33.1824 2.77317 31.674 3.28557C31.1738 3.45605 29.2874 5.35918 28.8649 4.75874C28.2545 3.89329 28.6596 2.96126 27.276 2.67203C21 2.35515 8.5 2.35515 6.03374 6.47462C4.95994 7.85148 3.89479 9.24821 2.84254 10.6413C0.446815 13.7973 2.84254 19.5 0.459189 23.8222Z" fill="#4B8B99"/>
<path opacity="0.3" d="M84.6373 92.498C91.0082 92.29 86.0725 86.4008 85.6966 83.6186C85.0751 79.0705 88.1433 77.3018 84.1881 73.3131C81.9891 71.1017 74.524 64.8888 71.5607 69.2779C69.0529 72.9919 76 75 66.5336 75.683C61.3165 76.0594 65.2129 82.8706 67.0823 84.7209C70.6631 88.2653 79.1805 92.6732 84.6373 92.498Z" fill="#62B9CC"/>
<path opacity="0.3" d="M40.9202 15.8767C38.3223 15.8868 18.7146 13.1393 23.3443 19.7661C15.5374 21.4001 31.13 20.7467 40.9202 29.0711C41.6863 29.7225 51.2952 40.2938 51 34.1176C53.3905 31.3214 49.3038 30.7398 48.4557 29.0711C46.3307 24.8919 47.8258 15.8518 40.9202 15.88L40.9202 15.8767Z" fill="#5CAABB"/>
<path opacity="0.3" d="M35.2675 60.9886C34.5903 57.6916 27.7582 60.2488 24.8625 54.5C22.4892 52.5515 32.1902 43.0881 30.5578 40.3912C28.7811 37.4584 21.0177 39.9597 20.1059 36.6695C19.4819 34.4204 18.4449 29.7446 15.2454 29.9105C9.5 30.2083 15.2454 37.5 11.5848 44.6219C9.37246 49.21 12.8419 53.1643 14.3906 57.8197C20.1059 68.5 10.2682 75.8923 13.6263 82.1927C15.6183 85.9267 21.519 90.7721 24.8625 86.002C28.1247 81.4013 34.6234 89.2441 38.2777 90.135C44.1787 91.5608 44.8832 82.7289 40.8923 80.1835C37.4587 77.9925 35.3294 80.1772 34.5 76.5C34.1547 74.9796 33.8581 71.3012 33 70C31.1865 67.2391 35.8541 63.8472 35.2675 60.9919L35.2675 60.9886Z" fill="#62B9CC"/>
<path d="M97.3619 92.8285C98.6511 90.4606 99.5706 87.6643 98.8134 84.9773C98.6119 84.2681 97.0659 82.5298 97.6904 81.8017C98.478 80.8793 99.4163 81.3813 99.6614 79.7015C100.604 73.2281 98.6502 67.5234 98.3474 61.2313C98.0569 54.9149 99.8216 48.6072 99.5072 42.2184C99.1987 35.9621 98.0011 29.7251 98.401 23.4448C98.6371 19.6587 100.432 15.4057 99.0715 11.683C97.5753 7.59515 93.4573 3.8257 89.4141 2.45637C83.1032 0.32333 74.5 1.83948 66.4622 1.23266C64.5347 1.65068 62.8285 2.58447 60.8005 2.35524C56.58 1.87897 53.0846 1.29681 48.7966 1.83946C43.4392 2.52341 37 2.49999 31.674 3.28566C29.9559 3.87125 28.812 6.38812 28.5599 3.66659C28.0305 2.22746 26.0215 2.64159 24.8492 2.57773C21.742 2.40241 16.8112 2.22715 13.7086 2.57773C7.66409 3.25946 6.96217 5.59819 3.37894 9.9739C6.22924 9.31199 9.03539 8.96813 12.2587 9.4952C16.2496 10.13 19.6899 7.01899 23.6323 9.77163C33.533 13.0813 34.1123 9.77163 43.3083 7.83157C49.5786 10.9178 55.9496 6.37868 61.2463 11.1841C64.054 12.1336 66.6025 8.65187 68.9495 7.71864C76 10.5 82.795 6.28732 85.063 7.5838C86.8463 8.60187 87.5201 10.938 89.2397 12.064C96.1496 15.2531 90.1263 19.8742 92.079 26.1713C94.2257 33.094 91.0871 35.0387 93.3092 42.7746C93.9461 46.294 93.7483 49.9651 92.7393 53.3935C91.5094 57.5693 91.2605 59.8685 92.6019 63.8102C93.3695 66.0823 91.6298 68.5466 92.079 70.903C92.8654 75.0602 92.3089 78.3429 92.384 82.5737C92.4343 85.3953 94.2176 88.0955 94.4254 90.9542C94.6065 93.4016 93.9662 95.8794 92.8399 98.2358C95.1557 97.3258 96.2478 94.8759 97.3619 92.8285Z" fill="#2F7989"/>
<path opacity="0.3" d="M83.9066 14.3663C79.1901 10.1053 70.2166 9.97382 66.4086 15.1956C65.0242 17.0969 64.8062 13.9416 62.5 14.3663C59.0238 15.0102 54.817 16.6722 51.2906 16.4261C45.5795 16.0158 50.1592 26.6814 52 23C56.5 17.1037 60.5 15.1956 64.5 34C66.9978 40.1988 58.9276 50.9672 67.4511 54.8026C73.2625 57.4176 75.7331 60.1791 79.5555 64.7608C81.6673 67.2958 86.0351 67.852 88.2442 65.4013C95.6755 57.155 86.5815 47.94 85.4988 40.1383C85.0295 36.7706 87.6039 33.8243 88.3917 30.6588C89.856 24.7777 88.4685 18.4934 83.9066 14.363L83.9066 14.3663Z" fill="#62B9CC"/>
<path opacity="0.7" d="M9.86863 68.5028C12.1404 60.9769 7.23004 58.8345 6.40256 52.8407C5.73007 47.9878 11.5967 42.5 8.56801 38.8271C5 34.5 8.24456 33.2997 7.79703 29.9645C6.60693 21.0913 6.8343 8.57792 14.6119 2.56762C12.4315 2.90496 9.84178 3.10567 8.03168 4.44532C6.26177 5.7533 5.15558 7.82652 3.77786 9.50532C1.0265 12.8606 2.25536 16.211 1.39116 20.0231C0.774367 22.7537 -0.214501 25.4674 0.0369099 28.3126C0.71424 35.9457 1.38446 43.239 1.13975 50.9664C1.06265 53.3935 -0.677088 60.4728 2.43702 61.619C3.11079 61.8685 4.11641 61.9291 4.1667 62.6505C4.26999 64.2778 1.58304 66.85 0.980512 68.4994C-0.498538 72.5481 2.46252 87.7715 3.12084 92.3498C3.12084 96.5 7.79703 94.3152 11.5748 98.6976C15.6778 101.506 24.0225 99.7685 28.93 99.0302C39.0806 97.5045 47.4745 98.2033 57.6462 99.3516C62.0592 99.8523 67.1319 97.8133 71.2524 99.0078C78.5149 101.114 83.1567 100.165 90.8052 98.7414C95.1998 97.9259 98.05 93.0337 98.8838 88.9012C98.2335 92.0498 93.2187 92.9634 90.6477 93.2769C84.498 94.0195 80.6353 94.2973 75.1107 92.1476C71.2993 90.6643 68.0914 93.2937 64.6052 94.3152C57.8272 96.297 52.2752 90.2537 45.7697 91.6756C38.1877 93.3531 28.4055 90.6223 21.2826 93.5904C15.2433 96.0948 16.2104 89.774 12.2185 87.8124C9.77142 86.6156 8.31661 83.6558 8.8563 80.9758C12.2185 75.5 8.73702 72.249 9.86193 68.4994L9.86863 68.5028Z" fill="#2F7989"/>
<path d="M71.2524 99.0143C73.9518 99.797 74.5113 101.114 78.7769 100.971C83.465 96.731 93.3898 96.1292 95.9984 95.4921C97.398 93.6171 98.2428 91.4863 98.8033 89.2314C95.9421 94.7302 87.4876 96.5351 81.6391 96.9585C78.6222 97.181 76.3979 95.8725 73.5486 95.4747C69.3115 94.8847 65.3627 96.2568 61.1894 96.2972C55.712 96.3478 50.5083 95.432 44.9082 94.5442C35.2053 93.0061 23.9758 98.6974 13.0665 94.5476C3.2458 88.7266 8.5729 82.2715 6.34893 74.0514C4.99132 69.0487 5.9165 65.7821 8.35683 61.2379C5.30977 59.8557 4.57902 55.7565 4.36448 52.4865C3.82034 44.2398 8.35683 33.6107 3.65719 26.3471C3.69072 24.196 4.94767 21.5557 5.71203 19.5645C4.52263 15.3541 4.82771 12.5803 6.96571 8.56125C7.46182 6.84874 8.12219 5.23736 9.04402 3.87207C6.74181 4.92048 5.49739 7.32252 3.9991 9.22873C4.22864 12.6039 3.96335 21.6216 0.499511 23.6536C0.217933 24.8942 0.00340174 26.1448 0.00675099 27.4157C5.71203 29.4109 3.35987 49.8576 1.19339 60.4861C2 62.5 4.10144 61.7174 4.1667 62.6537C3.78591 65.1079 1.302 65.8627 0.717931 69.6193C8.3334 69.1129 4.31667 86.0705 3.35987 93.8061C3.88135 94.7007 5.15097 94.5599 6.05059 94.7769C9.51854 95.6118 9.91076 99.4892 15.0108 100.12C23.5519 96.2163 33.4876 95.7174 42.7595 95.8961C48.4044 96.0039 53.979 97.7872 59.5904 97.6389C64.6783 97.5036 69.8222 96.2972 71.2524 99.0143Z" fill="#51A0B1"/>
<path opacity="0.8" d="M99.068 87.5528C99.1798 85.6342 98.478 84.3831 97.697 82.7187C97.2127 81.6835 98.108 81.7264 98.7764 81.3803C101.279 80.0845 98.5702 65.9335 98.344 61.2313C98.0535 54.9149 99.8182 48.6072 99.5038 42.2184C99.296 38.0045 98.6959 33.821 98.4378 29.6105C98.1824 25.3826 98.6988 21.3936 99.38 17.2292C100.016 13.3349 99.0878 10.4393 96.5294 7.48759C91.0654 0.549334 81.9597 0.771325 71.9361 1.08434C70.1125 1.05063 68.2622 0.841626 66.4621 1.23267C64.5346 1.65069 62.8284 2.58448 60.8004 2.35524C58.7767 2.12687 56.8781 1.4566 54.8203 1.40123C47.6937 1.21074 38.121 2.84508 31.674 3.28566C31.1738 3.45614 29.2874 5.35928 28.8649 4.75883C28.2496 2.79715 28.8649 2.38558 21.7987 2.38558C16.0937 2.05458 7.74966 2.38558 5.45045 7.25681C7.27399 6.81856 9.1143 6.42415 10.9479 5.96231C24.5687 4.75883 24.8491 7.61068 27.819 9.23901C29.0682 7.47499 31.0962 6.75357 33.2126 6.95004C35.7065 7.18264 37.9893 7.02757 40.4598 6.52865C47.7677 5.04745 52.1349 4.66915 59.0439 6.67698C63.3329 7.92375 69.2502 5.08136 73.7228 4.9847C87.0837 4.08009 95.8618 7.38977 94.7237 21.7727C94.316 26.9601 94.7512 31.0472 95.4712 36.0358C94.7307 39.0881 94.0311 48.3355 94.0211 51.41C91.531 60.7045 94.0211 58.8289 93.5455 76.0332C94.1263 80.2207 94.6337 79.6378 94.3918 83.8109C96.9103 89.9795 94.8443 93.8419 92.3992 98.5952C96.2837 96.5923 98.8163 91.8257 99.068 87.5528Z" fill="#6DBED0"/>
<path d="M47.77 57.8256C47.2517 58.177 46.8197 58.5722 46.3878 59.0113L39.6302 66.0395L34.8122 70.7806C33.646 71.9663 33.646 73.9425 34.8122 75.1282C35.4169 75.743 36.1944 76.0065 36.9287 76.0065C37.6629 76.0065 38.4836 75.6991 39.0451 75.1282L46.3878 68.4428L50.6207 63.315C51.0526 62.8759 51.4413 62.3928 51.7869 61.9097L52.9963 60.0653L53.5578 59.0113L53.1258 62.4367C52.9963 63.0515 52.9531 63.6663 52.9531 64.2812C52.9531 64.2812 54.2905 68.1799 54.5 70.7806C54.8177 74.7244 52.9531 80.7932 52.9531 80.7932C52.9531 82.462 54.4216 82.9561 56.0629 83C57.7906 83.0439 60.699 80.4093 60.699 78.6967C60.699 78.6967 60.5919 71.9068 60.699 67.5C60.829 62.1508 60.699 54.0233 60.699 54.0233C60.699 54.0233 58.9625 42.5526 60.1861 37.3612C61.6861 30.9968 60.699 24.4647 60.699 24.4647C60.699 22.7959 58.3834 21.3577 56.7421 21.3138C55.0144 21.2699 52.9531 24.3624 52.9531 26.0751C52.9531 26.0751 51.9061 29.1996 52.9531 33.5C54 37.8004 52.9531 42.7189 52.9531 42.7189C52.9531 43.3337 52.9963 43.9485 53.1258 44.5633L53.5578 46.7151L52.9963 46.9347L53.5578 43.8827C53.2122 43.3558 52.9241 43.158 52.4921 42.7189L49.5409 41.025L46.3446 36.775L40 30C38.8338 28.8143 35.9352 29.8143 34.769 31C33.6029 32.1857 33.6029 35.0777 34.769 36.2634L39.0451 42.3457L46.3446 48.0326C46.7765 48.4717 46.9535 49.9366 47.7268 49.2183C48.5 48.5 49.5409 50.4479 49.5409 50.4479L49.3249 51.0188L47.7268 49.2183C47.1221 49.0865 39.3333 49.8331 43.2276 49.2183H29.3655C27.7241 49.2183 26.0442 51.7214 26.001 53.3902C25.9578 55.1468 27.34 56.5521 29.0245 56.5521L31 55.9373L45.3944 56.5521C45.9991 56.5521 46.6038 56.5082 47.2085 56.3764L49.3249 55.9373L49.5409 56.5082L47.77 57.8256Z" fill="#104753"/>
<path d="M47.3878 58.0113L41 66L35.8122 69.7806C33.0529 72.5861 37.4124 76.8048 40.0451 74.1282L47 66.5C49.9762 63.8044 52.4594 61.4457 54.5578 58.0113C54.3389 59.747 53.9531 61.5279 53.9531 63.2811C53.9531 63.2811 55.2905 67.1799 55.5 69.7806C55.8177 73.7244 53.9531 79.7932 53.9531 79.7932C53.9531 81.462 55.4216 81.9561 57.0629 82C58.7906 82.0439 60.5 79.2127 60.5 77.5C60.5 77.5 59.8929 70.4068 60 66C60.13 60.6508 60 52.522 60 52.522C60 52.522 58.2765 41.6914 59.5 36.5C61 30.1356 60 25.2068 60 25.2068C60 23.538 58.7042 22.0449 57.0629 22.001C55.3352 21.9571 53.9531 23.3624 53.9531 25.0751C53.9531 25.0751 52.9061 28.1996 53.9531 32.5C55 36.8004 53.9531 41.7189 53.9531 41.7189C53.9531 43.0759 54.2922 44.392 54.5578 45.7151C52.393 43.7289 48.7268 40.4747 48.2085 41L44.3457 35.2633L39.2445 31.509C38.0783 30.3233 36.9352 29.73 35.769 30.9158C34.6029 32.1015 34.6029 34.0776 35.769 35.2633L40.0451 41.3457L47.3446 47.0326C47.7765 47.4717 47.9535 48.9366 48.7268 48.2183C49.5 47.5 50.5409 49.4479 50.5409 49.4479C48.6508 49.5547 41.7871 50.3682 44 50.0188H30.0245C28.3831 50.0188 27.0442 50.7214 27.001 52.3902C26.9578 54.1468 28.34 55.5521 30.0245 55.5521L32 54.9373L46.3944 55.5521C47.7306 55.5521 49.0242 55.2072 50.3249 54.9373C50.7679 56.1084 48.2124 57.1729 47.3878 58.0113Z" fill="#2A6471"/>
<path d="M19.4109 50.9587C21.8013 55.8961 30.6573 63.0927 24.8397 69.78C25.8054 68.2674 25.5837 64.8342 24.7886 63.2876C22.7369 59.2935 20.9688 54.1984 17.4965 51.2156C17.2362 50.9985 17.282 50.7803 17.4529 50.506C20.9614 44.9345 14.7529 39.2174 13.0924 34.2941C13.5749 34.7074 14.37 35.3534 14.7412 35.6703C19.4759 40.1315 18.9774 46.0905 19.4109 50.9587Z" fill="#1D6A7A"/>
<path d="M18.5853 51.3094C19.8418 43.394 17.7176 41.0042 14.6562 35.58C15.6691 36.2799 16.9079 37.2132 17.5036 38.319C18.5757 40.3067 19.926 43.7798 19.9022 46.0784C19.8831 47.9644 18.8017 50.0813 20.4742 51.521C25.2569 59.4434 30.8255 65.2177 24.8274 69.7963C25.9828 67.9577 27.174 65.5028 26.0504 63.403C23.8338 59.276 22.0282 54.4769 18.582 51.309L18.5853 51.3094Z" fill="#104753"/>
<path opacity="0.7" d="M23.5485 7.41524C24.41 8.06249 25.4894 9.50195 26.4112 8.4468C26.8939 7.89394 26.5554 6.60281 26.1967 6.07018C20.8129 1.09562 10.6425 4.93297 11.9335 6.15108C14.4221 8.49646 20.1756 4.86554 23.5485 7.41524Z" fill="#418A99"/>
<path d="M25.8011 7.2263C25.7609 7.45216 25.6201 7.63757 25.3218 7.71174C21.5706 4.10024 16.4235 6.89583 14.2431 5.34186C14.8298 3.49927 24.8887 3.9696 25.8011 7.2263Z" fill="#8EDDEE"/>
<path opacity="0.7" d="M40.3314 4.76209C36.4038 5.35416 29.5178 4.51676 30.4405 7.13192C38.3779 10.6388 47.5318 3.38479 55.5779 6.60266C58.5418 7.78801 59.8452 6.12076 58.0752 4.76205C54.5851 2.08281 47.1834 3.72919 40.3314 4.76209Z" fill="#418A99"/>
<path d="M42.612 6.01614C48.4212 5.50003 51.1947 3.72342 55.9802 6.04648C56.7679 6.43078 58.0216 6.40381 57.3813 5.18011C55.9802 2.50201 44.7433 5.35751 42.612 6.01614Z" fill="#8EDDEE"/>
<path d="M72.563 49.4796C70.6011 51.5032 76.5961 58.2547 77.4672 54.4283C77.8815 52.6105 74.6378 47.393 72.563 49.4796Z" fill="#207384"/>
<path d="M13.2039 20.6737C10.8674 19.4518 7.18665 27.4557 11.0217 27.1057C13.1958 26.9082 15.5729 21.9276 13.2039 20.6737Z" fill="#207384"/>
<path opacity="0.65" d="M36.9846 86.1325C38.4629 86.0886 39.2205 87.9663 38.8953 89.271C38.5172 90.7997 37.7574 93.6487 35.6539 93.1882C34.4036 92.9145 34.0361 91.4909 34.0046 90.3902C33.9406 88.4586 34.7346 86.1997 36.9846 86.1325Z" fill="#063039"/>
<path d="M34.6715 88.8125C35.0403 87.0292 36.3007 85.7853 37.4873 86.0313C38.674 86.2774 39.3377 87.9259 38.9723 89.7092C38.6036 91.4925 37.3432 92.7364 36.1565 92.4903C34.9699 92.2443 34.3028 90.5958 34.6715 88.8125Z" fill="#20606D"/>
<path opacity="0.65" d="M72.2849 17.2179C72.7911 16.1425 73.9274 15.9234 74.856 16.574C76.4817 17.7134 77.2695 22.0183 74.5241 22.4599C72.1345 22.8424 71.5111 18.8621 72.2849 17.2179Z" fill="#063039"/>
<path d="M72.4692 19.4496C72.1374 17.7842 72.7642 16.2538 73.8738 16.0279C74.9833 15.802 76.1532 16.9718 76.4851 18.6371C76.8169 20.3025 76.1901 21.8329 75.0805 22.0588C73.971 22.2847 72.8011 21.1149 72.4692 19.4496Z" fill="#20606D"/>
<path opacity="0.65" d="M84.8116 56.6634C85.6496 55.9757 87.3123 56.424 87.3022 57.6477C87.2916 58.9066 85.7037 60.2489 84.4496 60.021C82.5458 59.6657 84.0051 57.3259 84.8116 56.6634Z" fill="#063039"/>
<path d="M84.691 56.8049C85.5592 56.0262 86.6855 55.8711 87.2017 56.4577C87.7179 57.0443 87.433 58.15 86.5648 58.9254C85.6966 59.7041 84.5703 59.8591 84.0541 59.2726C83.5345 58.686 83.8194 57.5837 84.691 56.8049Z" fill="#20606D"/>
<path opacity="0.45" d="M85.1442 30.603C85.6671 31.7896 85.4493 33.0369 84.6615 33.3875C83.8704 33.7381 82.8078 33.0639 82.2849 31.8772C81.7619 30.6906 81.9798 29.4467 82.7676 29.0927C83.5553 28.7421 84.6213 29.4163 85.1442 30.5996L85.1442 30.603Z" fill="#2A7383"/>
<path opacity="0.45" d="M78.5432 76.0674C77.7688 76.0303 77.1621 75.5752 77.1856 75.056C77.209 74.5335 77.8593 74.1425 78.6337 74.1796C79.408 74.2166 80.0147 74.6717 79.9913 75.1909C79.9678 75.7134 79.3175 76.1044 78.5432 76.0674Z" fill="#2A7383"/>
<path opacity="0.45" d="M29.8169 82.4893C31.0773 83.7602 31.4125 85.4795 30.5644 86.3256C29.7164 87.1751 28.0101 86.8313 26.7498 85.5604C25.4927 84.2895 25.1575 82.5736 26.0022 81.7241C26.847 80.8779 28.5565 81.2184 29.8136 82.4893L29.8169 82.4893Z" fill="#2A7383"/>
<path opacity="0.54" d="M46.0267 76.1697C46.8647 76.5203 47.344 77.2889 47.096 77.8889C46.8479 78.489 45.9697 78.6946 45.1316 78.344C44.2936 77.9934 43.8176 77.2248 44.0657 76.6248C44.3137 76.0247 45.192 75.8225 46.03 76.1697L46.0267 76.1697Z" fill="#104753"/>
<path opacity="0.54" d="M24.9128 47.3558C24.1452 47.2345 23.5921 46.7153 23.6725 46.1996C23.753 45.6838 24.4402 45.3635 25.2078 45.4883C25.9721 45.6096 26.5285 46.1288 26.4481 46.6445C26.3676 47.1603 25.6804 47.4806 24.9128 47.3558Z" fill="#104753"/>
<path opacity="0.54" d="M50.2301 38.4306C49.8513 37.7496 49.9116 36.9911 50.3642 36.7349C50.8167 36.4787 51.4938 36.8226 51.8726 37.5036C52.2514 38.1845 52.1911 38.943 51.7385 39.1992C51.286 39.4554 50.6122 39.1116 50.2301 38.4306Z" fill="#104753"/>
<path opacity="0.65" d="M65.4645 79.2874C65.012 79.1997 64.6097 78.9401 64.3147 78.5154C64.1404 78.2625 63.8857 77.622 64.0566 77.1197C64.1438 76.8635 64.3214 76.6613 64.4957 76.5467C65.1963 76.0848 65.9439 75.9196 66.5472 76.1691C66.8556 76.2938 67.1104 76.5096 67.3517 76.7422C67.573 76.9579 67.8613 77.1838 67.9685 77.4939C68.3708 78.6603 66.9193 79.0885 66.4064 79.2334C66.0813 79.3278 65.7628 79.3447 65.4679 79.2874L65.4645 79.2874Z" fill="#063039"/>
<path d="M24.958 26.0017C20.1557 23.3763 16.1622 24.9121 14.0117 24.6171C17.8005 22.8624 24.7488 24.6182 26.1034 25.6454C28.1917 25.2052 33.3363 24.25 36.7227 24.25C36.1179 24.8662 29.1667 26.3326 27.7354 26.3326C26.4928 27.9212 24.958 28.8334 24.025 29.016C24.1909 28.5885 24.2743 27.2881 24.958 26.0017Z" fill="#1D6A7A"/>
<path d="M26.1849 27.0128C28.353 24.6281 30.1205 25.8228 36.7273 24.2452C33.0807 22.87 30.0679 25.5217 26.5369 25.0778C21.1304 24.3952 19.3958 21.1935 14 24.6261C17.5827 23.5468 20.5532 23.7011 25.6821 25.8228C25.2933 26.9151 24.6999 28.1017 24.0094 29.0287C25.0251 28.7253 25.5078 27.7511 26.1782 27.0128L26.1849 27.0128Z" fill="#104753"/>
<path d="M27.4002 74.9145C23.834 73.8498 19.8009 76.0755 17.9472 71.9109C17.0189 69.8292 16.1742 66.795 15.8076 64.5195C15.5227 67.358 16.593 70.3602 16.7975 73.1683C16.9573 75.3228 15.3837 76.3506 13.5241 77.238C14.0202 77.1941 14.7313 77.06 15.2274 77.0162C16.9822 76.8633 18.4071 75.8661 20.1228 75.673C23.7224 75.2697 27.1 75.3627 30.5143 76.5697C29.7131 75.8348 28.4125 75.2112 27.4002 74.9111L27.4002 74.9145Z" fill="#1D6A7A"/>
<path d="M28.8242 75.4375C26.842 74.4407 24.1106 74.4564 22.0133 74.237C20.2467 74.0516 19.3752 73.7751 18.5304 72.1705C17.2566 69.7534 17.1293 66.8948 15.7918 64.5013C16.2007 66.9588 16.6935 69.4062 17.2667 71.8334C17.9695 74.8095 15.3029 76.1287 13.5157 77.2507C15.137 76.7647 16.6809 75.545 20.1972 75.1202C23.7134 74.6954 25.3063 74.7473 28.8242 75.4375Z" fill="#104753"/>
<path d="M74.1332 37.441C72.9532 38.3904 72.8541 40.3122 71.2538 40.9267C70.041 41.387 68.2727 40.8413 67.0049 40.8449C68.665 41.2265 70.2224 42.4355 72.0248 42.1032C73.3871 41.8533 74.1853 39.6313 74.9646 38.6681C76.2403 37.0869 78.1735 37.6552 79.9324 37.35C78.523 36.97 75.4336 36.3949 74.1332 37.441Z" fill="#1D6A7A"/>
<path d="M72.4706 42.9696C73.7249 42.3817 75.229 37.7607 79.3055 37.4309C78.1034 37.3424 74.2333 37.0324 74.7165 37.9197C73.1944 40.0386 72.4706 42.4922 67 40.8323C67.6791 42.125 71.8239 42.6912 72.4739 42.9696L72.4706 42.9696Z" fill="#104753"/>
<path d="M72.3008 94.3017C70.6928 91.5003 65.5998 89.1198 63.0876 87.0275C66.4719 88.0478 71.5767 90.819 73.4954 93.985C74.849 95.6596 73.1596 98.8532 72.6887 99.5411C72.5471 98.887 73.025 94.3017 72.3008 94.3017Z" fill="#1D6A7A"/>
<path d="M72.6594 99.5352C72.8672 98.5542 73.2729 96.0076 73.2897 94.9929C73.3278 92.0985 64.9632 88.007 62.9987 87C66.1671 87.6895 74.0996 91.3123 74.9825 94.9625C75.1074 95.465 74.4034 99.0422 73.8398 100.082C73.3749 99.9055 72.9375 99.6484 72.6594 99.5352Z" fill="#104753"/>
<path d="M43.451 20.5293C45.6868 17.0562 46.3008 13.1304 46.1934 9.02795C45.9957 10.4319 40.6904 23.318 43.451 20.5293Z" fill="#1D6A7A"/>
<path d="M46.2041 9C45.9125 10.3417 46.0466 11.8182 45.765 13.2139C45.2454 15.7691 43.9817 18.0109 43.4554 20.5291C44.7192 18.8301 45.8187 16.9929 46.3986 15.0073C46.9785 13.0217 47.0154 10.8676 46.2041 9Z" fill="#104753"/>
<path d="M32.0964 14.1944C31.8751 13.7056 31.5735 13.2572 31.2718 12.8156C30.4974 11.6694 29.7231 10.5232 28.9488 9.37708C28.6873 8.9894 28.4124 8.57139 28.399 8.09944C28.389 7.69153 28.5733 7.3106 28.7309 6.93304C29.0124 6.25882 29.2706 5.55763 29.4214 4.83959C29.227 4.94747 29.0225 4.98118 28.8683 4.76206C28.5373 4.29172 28.8225 3.71127 28.2109 3.11328C27.7115 4.6269 27.209 5.94868 27.0783 7.65782C27.0381 8.19383 26.9744 8.79051 27.0347 9.32314C27.1587 10.385 27.9699 10.9649 28.6337 11.7031C29.5153 12.6841 30.4002 13.6685 31.2818 14.6495C31.7277 15.145 31.9388 16.0822 32.026 16.7294C32.1601 17.7205 32.2271 18.7217 32.2271 19.723C32.9813 18.0576 32.8439 15.8327 32.0964 14.1944Z" fill="#1D6A7A"/>
<path d="M32.6997 17.8048C32.7787 16.9856 32.7296 15.4765 32.6997 14.6573C32.6318 12.7909 30.3973 11.1177 29.5319 9.48157C28.6153 7.74971 29.7017 4.90427 31.0002 3.62262C30.3641 3.84593 29.4354 5.21205 28.8883 4.78565C28.3705 6.11388 28.3826 7.6471 28.0738 9.02985C32.5188 14.9025 31.8445 14.504 32.6997 17.8048Z" fill="#104753"/>
<path d="M63.9844 13C62.5585 10.4227 60.1954 8.80609 60.6497 5.61829C60.8159 4.43653 61.7696 3.53451 61.9403 2.36182C61.3773 2.40772 60.8318 2.37251 60.2776 2.27417C59.7103 3.48268 58.9182 5.355 59.1346 6.76446C59.6488 10.1147 62.3497 11.0789 63.9844 13Z" fill="#1D6A7A"/>
<path d="M62.728 9.83559C61.4508 8.44443 61.6285 7.60393 61.4776 6.52181C61.2067 4.57768 62.7224 2.83563 64.2532 1.86633C63.3414 2.14613 62.4263 2.38885 61.4508 2.38885C60.7721 3.67129 59.7975 5.31704 59.9859 6.79487C60.2562 8.94226 62.749 11.3532 63.9884 13.0078C63.6432 12.1617 62.728 10.741 62.728 9.83559Z" fill="#104753"/>
<path d="M7.1199 60.4289C6.22488 60.8166 4.87398 62.2998 4.6695 62.6032C9.20717 61.6339 11.959 62.1751 15.5464 62.5462C13.7798 61.7605 9.7282 60.2013 7.1199 60.4289Z" fill="#1D6A7A"/>
<path d="M10.4184 62.3908C12.1414 62.3942 13.861 62.4785 15.584 62.5627C13.8644 62.1211 12.1347 61.7368 10.3916 61.4065C8.09418 60.9737 6.28546 61.8397 4.16001 62.5964C4.07749 63.3588 3.81814 63.8547 3.49681 64.2587C5.91805 62.9938 9.2485 62.3908 10.4184 62.3908Z" fill="#104753"/>
<path opacity="0.7" d="M97.3719 16.2136C97.3619 12.9302 96.2725 9.5018 93.6578 7.39487C87.016 2.0513 77.7261 1.34799 69.5964 2.96188C68.5572 3.16752 61.5949 5.02499 62.3089 6.63974C62.8384 7.83779 66.1108 6.28858 66.8678 6.08351C73.1297 4.39368 84.5211 5.01448 91.2778 9.3265C96.8112 15.3109 93.4677 24.6748 93.6008 31.815C93.6219 32.9241 94.1054 36.8478 96.4702 35.9952C97.1625 29.5275 97.3923 22.7201 97.3719 16.2136Z" fill="#418A99"/>
<path opacity="0.7" d="M95.2802 53.0126C95.0672 56.3453 93.8298 60.2369 93.8766 63.6018C93.918 66.3715 95.5937 74.8415 94.6953 80.5781C101.591 77.202 96.7066 66.6673 96.5238 65.5767C95.4369 59.1139 98.0341 52.3681 97.925 45.8288C97.9016 44.4804 96.5473 38.7125 95.5417 42.4173C94.6165 45.8322 95.5115 49.4561 95.2802 53.0093L95.2802 53.0126Z" fill="#418A99"/>
<path opacity="0.7" d="M95.2869 87.0605C95.6523 88.7865 95.5919 90.6035 95.1092 92.2991C97.2521 93.5667 97.7612 87.2823 97.5898 86.3323C97.1574 83.9456 94.8109 84.8221 95.2869 87.0571L95.2869 87.0605Z" fill="#418A99"/>
<path d="M96.2557 39.6024C97.2613 38.5 98.1798 37.2595 98.9944 35.9683C98.9843 35.8605 98.9743 35.7559 98.9642 35.6481C98.1329 36.0121 97.3016 36.3762 96.4669 36.7369C95.411 37.937 94.3048 39.0933 93.1852 40.2294C91.6164 41.8239 89.87 43.1083 88.1537 44.5343C91.0834 43.651 94.1808 41.8745 96.2524 39.599L96.2557 39.6024Z" fill="#1D6A7A"/>
<path d="M98.4212 37.9135C98.6525 37.6674 98.8872 37.4213 99.1084 37.1651C99.0581 36.6594 99.0112 36.1538 98.9609 35.6515C98.9307 35.665 98.9006 35.6785 98.8704 35.6919C97.8212 37.0842 96.5608 38.3484 95.3105 39.4912C92.8701 41.7228 90.0979 43.5769 87.1648 45.0804C91.7036 44.0927 95.2836 41.2273 98.4246 37.9135L98.4212 37.9135Z" fill="#104753"/>
<path d="M89.6192 10.4116C91.358 11.3909 96.6744 15.9265 99.5117 16.125C97.3049 14.3619 93.187 11.4454 89.6192 10.4116Z" fill="#1D6A7A"/>
<path d="M89.6018 10.402C90.5538 10.9515 91.7103 11.2077 92.7025 11.7639C94.5227 12.7854 97.7295 15.1147 99.5195 16.1328C99.5195 15.9613 99.5909 15.3363 99.5908 14.757C98.2914 13.5604 95.2342 12.3953 94.2243 11.71C92.8533 10.7796 91.2209 10.2301 89.6018 10.3987L89.6018 10.402Z" fill="#104753"/>
<path d="M86.434 80.7026C89.732 83.6014 93.7635 85.2202 97.6804 82.6646C97.2351 81.6602 98.1398 81.7082 98.7799 81.3769C99.5455 80.9768 99.6141 80.0077 99.7151 79.2463C94.8811 82.6646 93.7423 83.7469 86.4374 80.6993L86.434 80.7026Z" fill="#1D6A7A"/>
<path d="M87.0877 81.2488C88.9409 83.0353 91.2832 85.006 94.0265 84.9334C95.3594 84.8991 96.7893 83.8563 97.9853 83.2681C97.7677 82.8814 97.5156 82.0039 98.3242 81.5547C96.9258 81.9805 95.1086 83.649 93.6578 83.8007C91.5471 84.0314 88.7968 82.2374 87.0843 81.2488L87.0877 81.2488Z" fill="#104753"/>
<path d="M65.0175 5.47005C64.8199 6.4812 72.8468 3.97634 77.5 4.5C83.6428 5.1864 88.6768 6.83306 93.3126 10.3851C94.4979 11.3035 95 9.76364 93.9964 8.90182C90.0001 5.46998 81.5 3.60301 80 3.57211C76.5 3.50002 65.5 3 65.0175 5.47005Z" fill="#8EDDEE"/>
<path d="M95.6891 33.9288C96 33.7036 95.9171 30.9656 95.7964 29.4857C95.4938 25.7407 96.4293 22.1409 96.316 18.4555C96.316 15.8028 94.2707 14.4611 94.8042 16.5745C95.8024 20.4483 94.5179 24.9433 94.2109 28.8216C94.1103 30.1104 94.2109 35 95.6891 33.9288Z" fill="#8EDDEE"/>
<path d="M94.8142 57.8265C94.2023 59.635 94.8292 76.5158 96.1182 76.5158C99.1887 76.5158 95.129 62.5434 95.307 61.1335C95.9422 56.1285 97.4729 51.624 97.3383 46.4693C97.2419 42.8964 95.3866 43.8555 95.8433 47.3222C96.3476 51.0629 96.0073 54.2959 94.8109 57.8231L94.8142 57.8265Z" fill="#8EDDEE"/>
<path d="M96.1719 89.4371C97.0022 89.5415 97.2396 86.386 96.4836 86.1739C95.4412 85.8836 95.3717 89.3505 96.1719 89.4371Z" fill="#8EDDEE"/>
</svg>
