<svg width="101" height="102" viewBox="0 0 101 102" fill="none" xmlns="http://www.w3.org/2000/svg">
<path d="M0.459067 23.8222C-0.781518 29.3411 1.13492 34.9141 1.22671 40.4653C1.30427 45.0621 1.30234 49.6477 0.790929 54.2194C0.609914 55.8307 0.442312 57.523 0.74735 59.131C1.42113 62.6829 3.78615 61.0827 4.1531 62.5325C4.43091 63.6301 1.88141 66.4123 1.42113 67.4307C-0.13251 70.8746 2.02984 70.8661 2.65135 73.7885C2.05472 78.5612 2.43101 92.0429 3.58658 93.8229C4.99987 96 4.49986 92 11.7255 98.8054C15.7974 101.477 23.461 99.8586 27.9127 99.1607C38.9047 97.4334 48.5351 97.9713 59.5801 99.628C63.5225 100.225 67.4443 97.9054 71.2589 99.011C73.0724 99.5369 74.5776 100.63 76.4916 100.849C81.0676 101.365 90.9096 100.306 94.2376 97.4469C96.7305 95.2998 98.8821 90.8213 99.0746 87.5527C99.1864 85.6341 98.4846 84.383 97.7036 82.7186C97.254 81.7464 99.4702 81.0338 99.6646 79.7014C100.607 73.228 98.6533 67.5233 98.3506 61.2312C98.0601 54.9148 99.8248 48.6071 99.5104 42.2183C99.2018 35.9617 98.0043 29.7252 98.4042 23.4447C98.6403 19.6586 100.435 15.4057 99.0746 11.683C98.0465 8.87399 95.5431 5.99704 93.1079 4.28342C87.0904 0.063502 78.8798 1.21387 71.936 1.08425C68.2456 1.01603 64.3004 2.75078 60.8003 2.35515C53.8567 1.57159 43.5753 2.33768 36.4741 2.82036C34.9053 2.92824 33.1823 2.77317 31.6739 3.28557C31.1737 3.45605 29.2873 5.35918 28.8648 4.75874C28.2544 3.89329 28.6595 2.96126 27.2759 2.67203C20.9999 2.35515 8.49988 2.35515 6.03362 6.47462C4.95982 7.85148 3.89467 9.24821 2.84242 10.6413C0.446693 13.7973 2.84242 19.5 0.459067 23.8222Z" fill="#590507"/>
<path fill-rule="evenodd" clip-rule="evenodd" d="M33.2991 34.0875C34.7404 32.6375 37.0772 32.6375 38.5184 34.0875L40.6667 38C40.6667 38 45.4106 41 44.15 41.5C43.5716 43.7454 50.1091 45.7489 50.1091 45.7489C50.1091 45.7489 53.4147 43.3032 55.3284 41.5C58.1047 38.8839 60.5454 35.5 60.5454 35.5C61.6997 32.5 64.5212 33.5 66.919 34.0875C68.3603 35.5376 68.3603 37.8886 66.919 39.3387L60.5454 43.5C60.5454 43.5 55.8231 49.55 55.0788 50.55C54.3344 51.55 54.5535 55.4786 56.3 54.6C57.2939 54.1 60.0485 57 60.0485 57L66.919 62.6613C68.3603 64.1114 68.3603 66.4624 66.919 67.9125C65.4778 69.3625 63.141 69.3625 61.6997 67.9125C61.6997 67.9125 60.7673 63.4072 58.0606 62.6613C56.9375 62.3519 55.0788 61.5 55.0788 61.5L49.55 55.05C49.55 55.05 46.4 59.1 45.95 58.2C42.8115 58.8277 38.5184 67.9124 38.5184 67.9124C37.0772 69.3625 35.1503 68.4501 33.7091 67C34.206 66.5 32.3587 64.6001 33.8 63.15C33.8 63.15 36.4112 60.8572 38.5184 58.82C36.5306 58.32 44.8898 51 44.8898 51C44.8898 51 37.5978 40.1614 34.703 40.5C30.8142 38.3387 31.8579 35.5376 33.2991 34.0875Z" fill="#FEFCF9"/>
<path d="M9.86863 68.5028C12.1404 60.9769 7.23004 58.8345 6.40256 52.8407C5.73007 47.9878 8.32281 38.048 5.29411 34.375C1.7261 30.048 5.74164 23.9919 5.29411 20.6566C4.104 11.7834 6.8343 8.57792 14.6119 2.56762C12.4315 2.90496 9.84178 3.10567 8.03168 4.44532C6.26177 5.7533 4.37772 8.3212 3 10C0.248641 13.3553 2.25536 16.211 1.39116 20.0231C0.774367 22.7537 -0.214501 25.4674 0.0369099 28.3126C0.71424 35.9457 1.38446 43.239 1.13975 50.9664C1.06265 53.3935 -0.677088 60.4728 2.43702 61.619C3.11079 61.8685 4.11641 61.9291 4.1667 62.6505C4.26999 64.2778 1.58304 66.85 0.980512 68.4994C-0.498538 72.5481 2.46252 87.7715 3.12084 92.3498C3.12084 96.5 7.79703 94.3152 11.5748 98.6976C15.6778 101.506 24.0225 99.7685 28.93 99.0302C39.0806 97.5045 49.3283 98.3517 59.5 99.5C64 100.5 68.5 97.5 74.8873 100.5C82 102 83.3515 100.923 91 99.5C95.3946 98.6845 98.05 93.0337 98.8838 88.9012C98.2335 92.0498 93.2187 92.9634 90.6477 93.2769C84.498 94.0195 80.4119 97.657 74.8873 95.5073C71.0759 94.024 61.1324 94.4859 57.6462 95.5073C50.8682 97.4891 48.6846 91.855 42.1791 93.2769C34.5972 94.9544 28.4055 90.6223 21.2826 93.5904C15.2433 96.0948 14.8129 93.0857 10.821 91.124C8.37393 89.9273 5.86287 86.402 6.40255 83.722C9.76471 78.2462 6.34047 74.3453 7.46537 70.5957L9.86863 68.5028Z" fill="#D8494B"/>
<path d="M99.0678 87.5528C99.1796 85.6342 98.4778 84.3831 97.6968 82.7187C97.2125 81.6835 98.5 82 98.7762 81.3803C102 79.7112 98.57 65.9335 98.3438 61.2313C98.0533 54.9149 99.818 48.6072 99.5036 42.2184C99.2958 38.0045 98.6958 33.821 98.4377 29.6105C98.1822 25.3826 98.6986 21.3936 99.3798 17.2292C100.016 13.3349 99.0876 10.4393 96.5292 7.48758C91.0652 0.549331 81.9595 0.771322 71.9359 1.08434C70.1124 1.05063 68.262 0.841623 66.4619 1.23267C64.5345 1.65068 62.8282 2.58448 60.8002 2.35524C58.7765 2.12687 56.8779 1.45659 54.8201 1.40122C47.6936 1.21074 38.447 2.55942 32 3C30.5 3.5 29.2872 5.35928 28.8647 4.75883C28.2494 2.79715 28.8647 2.38558 21.7985 2.38558C16.0935 2.05458 7.74947 2.38558 5.45026 7.2568C7.27381 6.81856 9.11411 6.42415 10.9477 5.96231C24.5685 4.75883 24.8489 7.61067 27.8189 9.239C29.068 7.47499 31.096 6.75357 33.2124 6.95004C35.7064 7.18264 37.9892 7.02757 40.4597 6.52865C47.7675 5.04745 52.1347 4.66914 59.0437 6.67698C63.3327 7.92375 69.25 5.08136 73.7226 4.98469C87.0835 4.08008 95.8616 7.38977 94.7235 21.7727C94.3158 26.9601 94.751 31.0472 95.471 36.0358C94.7305 39.0881 94.0309 48.3355 94.0209 51.41C91.5308 60.7045 94.0209 58.8289 93.5453 76.0332C94.1261 80.2207 94.6335 79.6378 94.3917 83.8109C96.9102 89.9795 94.8441 93.8419 92.399 98.5952C96.2835 96.5923 98.8161 91.8257 99.0678 87.5528Z" fill="#D8494B"/>
</svg>
