<svg width="375" height="290" viewBox="0 0 375 290" fill="none" xmlns="http://www.w3.org/2000/svg">
<g clip-path="url(#clip0_4176_62844)">
<g clip-path="url(#clip1_4176_62844)">
<path d="M145.085 57.2975V84.9692L114.388 89.1487L116.167 65.179L145.085 57.2975Z" fill="#0E3740"/>
<path d="M124.267 88.2906H119.331V77.06L124.267 76.2089V88.2906Z" fill="#0E3740"/>
<path d="M124.267 88.2906V77.2399L120.342 77.9181V88.2906H124.267Z" fill="#104A56"/>
<path d="M131.737 87.0589H126.801V75.8283L131.737 74.9841V87.0589Z" fill="#0E3740"/>
<path d="M131.737 87.0589V76.0152L127.812 76.6864V87.0589H131.737Z" fill="#104A56"/>
<path d="M139.207 85.8341H134.271V74.6036L139.207 73.7524V85.8341Z" fill="#0E3740"/>
<path d="M139.207 85.8342V74.7835L135.282 75.4616V85.8342H139.207Z" fill="#104A56"/>
<path d="M145.084 60.5013V57L114.658 65.2967L114.423 68.3897L145.084 60.5013Z" fill="#05343E"/>
<path d="M114.423 68.3897L115.856 69.3377L145.084 62.4181V60.5013L114.423 68.3897Z" fill="#104A56"/>
<path d="M145.084 67.7393V64.238L114.187 71.4413L113.959 74.5344L145.084 67.7393Z" fill="#05343E"/>
<path d="M113.959 74.5343L115.392 75.4754L145.084 69.6629V67.7393L113.959 74.5343Z" fill="#104A56"/>
<path d="M145.084 57.2975V84.9692L175.774 89.1487L173.995 65.179L145.084 57.2975Z" fill="#0E3740"/>
<path d="M165.902 88.2906H170.831V77.06L165.902 76.2089V88.2906Z" fill="#104A56"/>
<path d="M158.432 87.0589H163.361V75.8283L158.432 74.9841V87.0589Z" fill="#104A56"/>
<path d="M150.955 85.8341H155.891V74.6036L150.955 73.7524V85.8341Z" fill="#104A56"/>
<path d="M145.084 60.5013V57L175.511 65.2967L175.739 68.3897L145.084 60.5013Z" fill="#032D36"/>
<path d="M175.739 68.3897L174.306 69.3377L145.084 62.4181V60.5013L175.739 68.3897Z" fill="#104A56"/>
<path d="M145.084 67.7393V64.238L175.975 71.4413L176.21 74.5344L145.084 67.7393Z" fill="#032D36"/>
<path d="M176.21 74.5343L174.777 75.4754L145.084 69.6629V67.7393L176.21 74.5343Z" fill="#104A56"/>
<path d="M107.659 88.0554L145.085 82.402V107.728H101.795L107.659 88.0554Z" fill="#094350"/>
<path d="M107.673 88.0831L145.084 82.402V91.9927L104.813 97.6668L107.673 88.0831Z" fill="#043641"/>
<path d="M106.087 93.3281L145.085 87.6748V84.9692L106.89 90.6225L106.087 93.3281Z" fill="#042D36"/>
<path d="M90.7114 106.628L145.085 100.981V126.3H84.8477L90.7114 106.628Z" fill="#094350"/>
<path d="M90.7253 106.655L145.085 100.981V110.565L87.8661 116.246L90.7253 106.655Z" fill="#043641"/>
<path d="M89.1399 111.907L145.085 106.254V103.542L89.943 109.195L89.1399 111.907Z" fill="#042D36"/>
<path d="M74.3594 126.1L145.085 122.1V145.765H68.4956L74.3594 126.1Z" fill="#094350"/>
<path d="M74.3524 126.106L145.084 122.1V131.691L71.4932 135.697L74.3524 126.106Z" fill="#043641"/>
<path d="M72.7878 131.372L145.085 127.373V124.667L73.5909 128.667L72.7878 131.372Z" fill="#042D36"/>
<path d="M55.4734 143.433L145.084 141.074V163.106H49.6166L55.4734 143.433Z" fill="#094350"/>
<path d="M55.4734 143.406L145.085 141.074V150.657L52.6143 152.989L55.4734 143.406Z" fill="#043641"/>
<path d="M53.902 148.713L145.085 146.346V143.641L54.712 146L53.902 148.713Z" fill="#042D36"/>
<path d="M12.544 186.951H145.085V212H5.08105L12.544 186.951Z" fill="#094350"/>
<path d="M12.544 186.951H145.085V196.542H9.69177L12.544 186.951Z" fill="#043641"/>
<path d="M10.5433 193.67H145.085V190.217H11.5749L10.5433 193.67Z" fill="#042D36"/>
<path d="M34.6491 161.902L145.085 160.539V186.951H27.1862L34.6491 161.902Z" fill="#094350"/>
<path d="M34.6422 161.902L145.084 160.539V170.129L31.783 171.486L34.6422 161.902Z" fill="#043641"/>
<path d="M32.6483 168.621L145.084 167.258V163.805L33.6798 165.168L32.6483 168.621Z" fill="#042D36"/>
<path d="M182.51 88.0554L145.084 82.402V107.728H188.367L182.51 88.0554Z" fill="#05343E"/>
<path d="M182.496 88.0831L145.084 82.402V91.9927L185.349 97.6668L182.496 88.0831Z" fill="#02262E"/>
<path d="M184.082 93.3281L145.084 87.6748V84.9692L183.272 90.6225L184.082 93.3281Z" fill="#021D23"/>
<path d="M199.451 106.628L145.084 100.981V126.3H205.314L199.451 106.628Z" fill="#05343E"/>
<path d="M199.437 106.655L145.084 100.981V110.565L202.296 116.246L199.437 106.655Z" fill="#02262E"/>
<path d="M201.022 111.907L145.084 106.254V103.542L200.219 109.195L201.022 111.907Z" fill="#021D23"/>
<path d="M215.81 126.1L145.084 122.1V145.765H221.667L215.81 126.1Z" fill="#05343E"/>
<path d="M215.81 126.106L145.084 122.1V131.691L218.669 135.697L215.81 126.106Z" fill="#02262E"/>
<path d="M217.381 131.372L145.084 127.373V124.667L216.571 128.667L217.381 131.372Z" fill="#021D23"/>
<path d="M234.689 143.433L145.084 141.074V163.106H240.552L234.689 143.433Z" fill="#05343E"/>
<path d="M234.689 143.406L145.084 141.074V150.657L237.548 152.989L234.689 143.406Z" fill="#02262E"/>
<path d="M236.26 148.713L145.084 146.346V143.641L235.45 146L236.26 148.713Z" fill="#021D23"/>
<path d="M277.618 186.951H145.084V212H285.081L277.618 186.951Z" fill="#05343E"/>
<path d="M277.618 186.951H145.084V196.542H280.477L277.618 186.951Z" fill="#02262E"/>
<path d="M279.619 193.67H145.084V190.217H278.594L279.619 193.67Z" fill="#021D23"/>
<path d="M255.513 161.902L145.084 160.539V186.951H262.976L255.513 161.902Z" fill="#05343E"/>
<path d="M255.52 161.902L145.084 160.539V170.129L258.379 171.486L255.52 161.902Z" fill="#02262E"/>
<path d="M257.514 168.621L145.084 167.258V163.805L256.489 165.168L257.514 168.621Z" fill="#021D23"/>
<path d="M116.472 86.7476L30.8622 212H92.9129L100.182 186.951H105.582L112.72 160.94L117.531 160.878L122.308 141.662L124.385 141.613L127.812 123.083L130.442 122.93L133.606 102.178L135.358 101.992L138.245 83.433L116.472 86.7476Z" fill="#0B434F"/>
<path d="M30.8622 212H76.5677L138.245 83.433L116.472 86.7476L30.8622 212Z" fill="#0E3740"/>
<path d="M34.9675 212L119.109 86.2839L135.808 83.8275L69.9494 212H34.9675Z" fill="#0A2C34"/>
<path d="M173.663 86.7476L259.272 212H197.228L189.952 186.951H184.552L177.415 160.94L172.603 160.878L167.827 141.662L165.757 141.613L162.33 123.083L159.692 122.93L156.528 102.178L154.777 101.992L151.897 83.433L173.663 86.7476Z" fill="#02262E"/>
<path d="M259.272 212H213.567L151.897 83.433L173.663 86.7476L259.272 212Z" fill="#0E3740"/>
<path d="M255.174 212L171.032 86.2839L154.327 83.8275L220.192 212H255.174Z" fill="#022A33"/>
</g>
<path d="M384 187.5C279 234 -5.5 199.5 -5.5 199.5C-5.5 218.83 -5.5 306.304 -5.5 306.304C-5.5 306.304 322.458 306.304 384 306.304V187.5Z" fill="#0C4753"/>
<path d="M143.551 346.303C144.278 347.32 145.372 348.336 146.367 348.416C146.652 347.912 146.938 347.407 147.24 346.923C147.321 346.773 147.408 346.626 147.493 346.468C146.179 335.768 116.813 281.844 113.806 275.667C101.614 250.596 90.3235 224.859 83.6269 198.035C86.0754 224.94 96.0231 251.56 108.098 276.655C113.749 288.408 119.897 299.92 126.066 311.415C131.961 322.39 136.417 336.301 143.551 346.303Z" fill="#13515F"/>
<path d="M148.284 345.084C148.607 344.523 148.959 343.98 149.329 343.44C149.104 333.23 123.33 276.805 120.758 270.418C110.385 244.618 100.967 218.227 96.279 191.199C96.6958 217.915 104.676 245.043 114.924 270.862C119.725 282.958 125.037 294.853 130.378 306.736C135.484 318.085 138.902 332.193 145.334 342.698C146.047 343.858 147.195 345.084 148.277 345.079L148.284 345.084Z" fill="#13515F"/>
<path d="M134.026 341.536C134.081 340.888 134.162 340.247 134.274 339.606C129.719 330.485 82.3179 290.582 77.2659 285.915C56.868 267.057 37.093 247.265 21.315 224.884C33.0747 248.818 51.8733 269.891 72.1628 288.819C81.6656 297.682 91.5502 306.155 101.458 314.593C110.925 322.654 120.035 333.923 130.339 340.652C131.476 341.389 133.041 342.004 134.021 341.543L134.026 341.536Z" fill="#104A56"/>
<path d="M125.103 280.512C127.662 291.665 130.793 302.831 133.971 313.988C137.006 324.641 137.69 336.987 142.295 347.378C142.815 348.552 143.802 349.926 144.992 350.219C145.331 349.832 145.673 349.457 146.006 349.034C146.072 348.935 146.136 348.824 146.199 348.714C146.289 348.549 146.388 348.4 146.478 348.235C147.241 337.549 132.697 287.672 131.352 281.95C125.757 258.099 121.298 234.086 121.948 211.007C116.839 232.514 119.642 256.69 125.103 280.512Z" fill="#13515F"/>
<path d="M107.669 293.708C97.7187 277.534 89.452 260.254 87.1842 242.466C92.849 260.015 102.182 276.657 112.239 292.81C114.937 297.144 143.324 337.79 139.781 339.669C138.85 340.163 137.61 339.336 136.855 338.515C131.018 332.169 127.3 323.106 122.45 316.058C117.376 308.677 112.33 301.284 107.658 293.711L107.669 293.708Z" fill="#13515F"/>
<path d="M95.1432 293.134C81.6032 280.312 69.2944 265.826 62.3043 248.845C72.3221 264.461 85.4256 277.954 99.0528 290.722C102.703 294.148 139.813 325.255 137.111 328.299C136.401 329.104 135.04 328.687 134.127 328.118C127.056 323.73 121.164 315.926 114.789 310.51C108.126 304.839 101.481 299.14 95.1315 293.137L95.1432 293.134Z" fill="#13515F"/>
<path d="M136.946 283.575C137.591 265.511 140.345 247.841 148.601 233.964C143.431 250.022 141.984 267.991 141.44 286.102C141.294 290.962 142.61 338.693 138.451 337.556C137.358 337.256 136.752 335.829 136.573 334.739C135.147 326.314 137.12 317.478 136.956 309.252C136.783 300.641 136.642 292.031 136.946 283.575Z" fill="#13515F"/>
<path d="M143.341 292.869C145.516 275.182 149.793 258.099 159.296 245.299C152.725 260.555 149.744 278.063 147.66 295.811C147.102 300.571 144.398 347.614 140.294 346.074C139.218 345.673 138.731 344.204 138.633 343.115C137.905 334.697 140.644 326.208 141.178 318.11C141.735 309.627 142.319 301.164 143.336 292.876L143.341 292.869Z" fill="#13515F"/>
<path d="M144.102 301.269C143.818 309.923 143.891 318.59 143.981 327.248C144.069 335.086 142.622 344.048 143.417 351.847C144.313 350.993 145.19 350.075 146.003 349.022C146.069 348.923 146.133 348.812 146.197 348.702C146.421 348.289 146.671 347.883 146.91 347.48C148.08 333.62 147.639 306.132 147.752 302.436C148.292 283.934 149.554 265.31 153.851 247.464C147.042 264.054 144.712 282.783 144.095 301.264L144.102 301.269Z" fill="#0E3740"/>
<path d="M149.87 299.963C148.974 308.557 148.443 317.199 147.936 325.837C147.487 333.379 145.543 341.835 145.626 349.466C145.749 349.313 145.876 349.183 145.999 349.03C146.065 348.93 146.128 348.82 146.192 348.709C146.525 348.103 146.877 347.499 147.245 346.916C148.06 345.435 148.879 343.917 149.964 342.565C151.815 328.158 153.094 304.853 153.432 301.49C155.263 283.113 157.83 264.686 163.356 247.331C155.411 263.184 151.778 281.607 149.874 299.956L149.87 299.963Z" fill="#0E3740"/>
<path d="M152.888 308.764C150.969 316.114 149.382 323.653 147.826 331.192C146.388 338.157 143.207 345.369 142.559 352.645C143.771 351.592 144.926 350.41 146.003 349.023C146.069 348.924 146.133 348.813 146.192 348.709C146.525 348.103 146.877 347.499 147.245 346.917C147.566 346.344 147.885 345.759 148.218 345.183C151.654 332.886 155.409 314.28 156.109 311.536C160.141 295.782 164.887 280.269 172.336 266.886C162.751 277.976 156.985 293.064 152.881 308.76L152.888 308.764Z" fill="#0E3740"/>
<path d="M138.622 311.181C137.745 298.604 142.63 268.259 146.753 257.084C144.698 269.157 140.636 299.459 141.576 312.048C141.828 315.425 146.012 348.078 143.361 348.099C142.665 348.105 142.194 347.239 142.003 346.518C140.53 340.987 141.122 334.512 140.443 328.875C139.728 322.97 139.033 317.068 138.626 311.174L138.622 311.181Z" fill="#0E3740"/>
<path d="M131.457 306.996C127.447 295.284 124.672 282.975 125.784 270.835C126.871 283.112 130.416 295.077 134.491 306.78C135.583 309.921 147.801 339.641 145.287 340.602C144.628 340.857 143.952 340.192 143.598 339.577C140.797 334.816 139.733 328.413 137.658 323.266C135.491 317.875 133.336 312.481 131.464 307L131.457 306.996Z" fill="#0E3740"/>
<path d="M158.891 314.219C164.805 303.779 171.831 294.234 180.929 288.606C172.977 296.47 166.622 306.596 160.75 317.095C159.177 319.91 145.32 348.413 143.233 346.459C142.686 345.951 142.771 344.924 142.993 344.224C144.741 338.826 148.605 334.237 151.026 329.339C153.563 324.222 156.119 319.108 158.891 314.219Z" fill="#0E3740"/>
<path d="M145.751 349.325C133.242 335.932 91.3468 305.59 86.4016 301.587C64.0546 283.484 42.3687 264.176 24.9974 241.1C38.0237 266.737 58.6641 287.72 80.8957 305.92C91.3094 314.439 102.129 322.441 112.976 330.401C122.377 337.295 131.494 347.3 141.511 353.5C143.021 352.319 144.435 350.962 145.751 349.325Z" fill="#02262E"/>
<path d="M146.003 349.022C146.069 348.923 146.133 348.813 146.197 348.702C146.53 348.096 146.882 347.492 147.25 346.909C147.394 346.648 147.543 346.379 147.691 346.11C137.939 332.614 96.2553 296.779 91.5089 292.234C70.751 272.328 50.7458 251.278 35.3601 226.828C46.211 253.468 65.0368 276.103 85.6652 296.096C95.3339 305.458 105.451 314.331 115.591 323.169C125.198 331.539 134.17 343.594 144.784 350.438C145.202 349.98 145.612 349.518 146.001 349.011L146.003 349.022Z" fill="#02262E"/>
<path d="M127.697 324.188C123.344 318.474 118.898 312.82 114.434 307.195C111.924 304.029 109.303 300.921 106.927 297.66C91.8561 276.936 77.8851 255.372 69.5375 231.771C72.673 256.394 84.9952 279.088 99.918 299.866C106.907 309.598 114.496 318.994 122.123 328.364C122.252 328.521 122.381 328.679 122.506 328.844C125.816 332.994 128.631 337.519 131.55 341.95C133.03 344.204 134.542 346.44 136.151 348.607C136.944 349.677 137.763 350.724 138.614 351.752C139.417 352.716 140.127 353.742 140.842 354.792C141.004 355.022 141.168 355.265 141.429 355.377C142.066 355.659 142.712 354.996 143.09 354.399C144.043 352.908 144.895 351.34 145.63 349.735C145.734 349.518 145.829 349.284 145.813 349.049C145.799 348.825 145.68 348.623 145.569 348.437C144.048 345.878 142.065 343.799 140.28 341.454C138.396 338.981 136.746 336.357 134.917 333.849C132.55 330.604 130.13 327.395 127.692 324.196L127.697 324.188Z" fill="#02262E"/>
<path d="M160.689 302.21C166.941 287.844 174.997 274.253 186.921 264.876C177.151 276.671 170.199 290.774 164.014 305.194C161.879 310.18 160.233 315.901 158.258 320.953C157.34 323.306 156.404 325.657 155.461 328.003C154.163 331.216 152.857 334.425 151.487 337.61C150.612 339.654 149.73 341.694 148.844 343.74C148.553 344.405 148.223 345.053 147.887 345.709C146.657 348.088 145.358 350.432 143.992 352.741C143.935 352.826 143.859 352.939 143.756 352.911C143.711 352.902 143.679 352.86 143.648 352.829C143.27 352.373 143.154 351.753 143.073 351.157C142.927 350.109 142.863 349.044 142.875 347.989C142.876 347.468 142.922 346.957 142.942 346.439C142.959 346.031 142.812 345.657 142.827 345.237C142.867 343.741 143.414 342.266 144.021 340.912C145.411 337.821 146.835 334.753 148.312 331.7C149.727 328.769 157.768 308.941 160.696 302.215L160.689 302.21Z" fill="#02262E"/>
<path d="M136.478 308.136C137.664 317.258 139.366 326.368 141.106 335.482C141.495 337.51 141.747 339.559 141.957 341.611C142.109 343.123 141.8 345.769 143.044 346.865C143.408 347.189 143.866 347.403 144.318 347.581C144.929 347.825 145.615 348.017 146.222 347.778C146.882 347.522 147.273 346.843 147.602 346.214C147.753 345.926 147.909 345.631 147.973 345.306C148.032 345.018 148.009 344.717 147.97 344.425C147.056 338.254 145.964 332.046 144.904 325.88C143.947 320.324 142.747 314.78 141.985 309.191C139.342 289.691 137.739 270.036 140.672 251.045C133.863 268.842 133.939 288.664 136.467 308.138L136.478 308.136Z" fill="#02262E"/>
<path d="M113.317 296.033C106.927 277.48 102.864 258.095 105.958 239.304C106.904 258.479 112.424 277.404 118.941 295.95C120.69 300.929 140.68 348.181 135.947 349.462C134.705 349.799 133.524 348.715 132.912 347.724C128.153 340.083 126.742 330.033 123.358 321.857C119.817 313.29 116.312 304.716 113.321 296.026L113.317 296.033Z" fill="#02262E"/>
<path d="M143.452 346.575C146.483 349.036 145.289 344.354 144.436 342.794C142.662 339.577 140.697 336.539 139.164 333.175C134.699 323.399 131.756 312.501 129.143 302.069C124.364 282.994 120.594 263.643 121.413 244.448C116.613 262.879 118.877 282.566 123.546 301.638C125.57 309.93 127.731 318.077 130.619 326.066C133.486 333.979 136.748 340.826 143.294 346.429C143.353 346.478 143.405 346.523 143.456 346.568L143.452 346.575Z" fill="#02262E"/>
<path d="M106.4 309.014C94.3538 297.28 82.7129 285.121 71.5055 272.586C89.0996 285.894 105.863 300.294 121.668 315.69C117.86 310.912 115.543 305.379 112.984 299.921C105.903 284.832 100.437 269.062 93.3723 253.872C94.7 256.72 97.8649 259.454 99.6822 262.087C101.788 265.127 103.734 268.285 105.503 271.541C108.872 277.723 110.651 284.216 113.66 290.496C117.346 298.188 120.68 305.646 125.696 312.641C129.953 318.577 134.203 324.509 138.454 330.453C134.91 323.846 131.358 317.204 128.91 310.112C121.592 288.936 127.856 264.11 132.276 242.859C131.283 257.246 130.352 271.694 131.341 286.073C132.338 300.59 135.248 315.218 142.232 328.024C140.528 313.955 140.106 301.17 141.904 286.963C142.736 295.226 143.568 303.489 144.4 311.752C144.964 317.394 145.54 323.064 147.053 328.519C150.113 320.633 155.458 313.657 162.259 308.634C159.187 312.157 156.427 315.96 154.012 319.962C152.157 323.049 150.459 326.466 150.618 330.059C153.529 326.029 156.533 322.563 160.099 319.124C161.584 317.692 169.381 310.9 171.727 312.465C170.12 312.814 167.009 317.967 165.913 319.291C156.709 330.451 150.166 343.743 143.739 356.723C142.999 358.214 142.107 359.857 140.527 360.378C136.705 361.622 133.721 351.228 132.684 348.952C129.628 342.253 123.861 337.803 119.277 332.159C106.101 315.92 91.3236 300.984 75.2185 287.657C86.6029 293.164 97.1463 300.389 106.4 309.014Z" fill="#05343E"/>
<path d="M-20.738 289.147C-21.3693 290.807 -21.7092 292.901 -21.0172 294.14C-20.1917 294.08 -19.3661 294.019 -18.5527 293.995C-18.3099 293.971 -18.0671 293.959 -17.8122 293.935C-6.14551 283.95 34.6333 206.748 39.5865 198.326C59.7027 164.159 81.3243 130.533 107.875 101.479C77.8644 125.576 54.1304 158.312 33.8927 192.359C24.4113 208.3 15.6097 224.638 6.84446 240.988C-1.52011 256.604 -14.5101 272.833 -20.738 289.147Z" fill="#104A56"/>
<path d="M-15.5421 293.779C-14.6195 293.719 -13.6968 293.707 -12.762 293.719C-0.816111 285.405 45.7778 210.478 51.3259 202.405C73.7487 169.813 97.6284 137.884 126.012 111.043C94.6177 132.59 68.7227 163.401 46.1784 195.86C35.6165 211.067 25.698 226.719 15.8159 242.395C6.383 257.374 -7.66316 272.532 -15.0444 288.413C-15.8578 290.17 -16.4041 292.491 -15.5421 293.767L-15.5421 293.779Z" fill="#104A56"/>
<path d="M-22.6199 274.132C-21.8065 273.687 -20.981 273.278 -20.1312 272.905C-12.9078 260.333 -3.0621 172.869 -1.5203 163.22C4.71974 124.253 12.5623 85.2849 26.6449 49C7.53626 81.7599 -2.60077 120.583 -9.01077 159.479C-12.0094 177.693 -14.2432 196.052 -16.4163 214.411C-18.4922 231.952 -24.6594 251.599 -24.4895 269.079C-24.4652 271.004 -23.9553 273.338 -22.632 274.132L-22.6199 274.132Z" fill="#104A56"/>
<path d="M42.7791 215.494C31.5616 227.308 20.7811 239.808 10.0492 252.356C-0.197056 264.339 -14.3161 274.878 -23.0084 288.509C-23.9918 290.049 -24.8416 292.299 -24.2467 293.935C-23.5183 294.031 -22.802 294.139 -22.0372 294.2C-21.8672 294.2 -21.6851 294.187 -21.503 294.175C-21.2359 294.151 -20.981 294.151 -20.7139 294.127C-7.42045 286.608 40.2904 230.111 46.0205 224.012C69.9123 198.603 94.8968 174.409 122.819 156.988C93.2336 167.9 66.7438 190.265 42.7791 215.494Z" fill="#104A56"/>
<path d="M13.3029 205.292C24.6297 180.785 38.603 157.397 57.9301 140.699C41.5774 161.223 29.2065 185.369 17.989 209.984C14.9783 216.589 -10.8074 282.169 -15.8456 279.462C-17.1689 278.752 -17.1689 276.635 -16.7925 275.095C-13.8789 263.196 -6.06062 251.659 -1.53234 240.374C3.21446 228.56 7.99768 216.769 13.2908 205.28L13.3029 205.292Z" fill="#104A56"/>
<path d="M4.06427 190.037C8.56826 163.93 16.0223 137.968 30.6512 116.324C20.0407 140.47 14.3955 166.589 10.0251 192.756C8.84749 199.77 1.29631 268.141 -4.45812 267.347C-5.97564 267.142 -6.55837 265.205 -6.60693 263.677C-6.99541 251.863 -2.3943 238.75 -1.01032 226.947C0.4465 214.604 1.95188 202.26 4.05213 190.025L4.06427 190.037Z" fill="#104A56"/>
<path d="M48.5214 231.904C70.4829 218.43 93.6464 207.759 116.664 206.58C93.5007 213.124 71.0171 225.576 49.0799 239.207C43.1919 242.864 -12.4464 282.037 -14.3889 276.226C-14.8988 274.698 -13.6847 272.857 -12.5314 271.787C-3.65698 263.461 8.3982 258.829 18.0375 252.152C28.126 245.162 38.2387 238.209 48.5214 231.904Z" fill="#104A56"/>
<path d="M42.5484 246.786C65.2748 235.417 88.9481 227.007 111.674 228.15C88.3533 232.409 65.202 242.684 42.4756 254.209C36.3812 257.301 -21.6244 291.18 -23.0448 285.116C-23.4212 283.528 -22.0615 281.796 -20.8474 280.821C-11.4267 273.326 0.82273 269.873 10.8626 264.122C21.376 258.095 31.8894 252.116 42.5363 246.786L42.5484 246.786Z" fill="#104A56"/>
<path d="M33.1764 254.305C22.6752 260.79 12.441 267.708 2.23116 274.637C-7.0075 280.918 -18.7956 286.271 -27.4272 293.357C-25.7033 293.742 -23.9187 294.055 -22.0249 294.188C-21.8549 294.188 -21.6728 294.175 -21.4907 294.163C-20.823 294.103 -20.1432 294.079 -19.4754 294.043C-2.09074 284.503 30.2021 262.318 34.6818 259.539C57.0804 245.595 80.1952 232.409 104.791 223.422C79.6975 228.451 55.6114 240.458 33.1764 254.293L33.1764 254.305Z" fill="#0E3740"/>
<path d="M39.2949 260.092C28.3809 265.807 17.6975 271.991 7.03848 278.199C-2.27302 283.612 -13.8547 287.98 -22.8506 294.091C-22.5714 294.115 -22.3164 294.163 -22.0372 294.187C-21.8672 294.187 -21.6851 294.175 -21.503 294.163C-20.5197 294.079 -19.5242 294.019 -18.5408 293.995C-16.1371 293.79 -13.6848 293.562 -11.2203 293.778C7.35413 284.611 36.0413 267.756 40.3025 265.506C63.5752 253.186 87.4913 241.697 112.476 234.551C87.3578 237.655 62.604 247.881 39.307 260.092L39.2949 260.092Z" fill="#0E3740"/>
<path d="M31.2338 270.595C20.9875 274.12 10.7777 278.187 0.592063 282.289C-8.81656 286.079 -19.9005 288.004 -29.0542 292.972C-26.8447 293.574 -24.5259 294.007 -22.025 294.187C-21.8551 294.187 -21.673 294.175 -21.503 294.163C-20.5197 294.079 -19.5242 294.019 -18.5408 293.995C-17.606 293.923 -16.6591 293.839 -15.7122 293.778C1.61184 288.148 26.6813 277.922 30.4933 276.586C52.3941 268.935 74.5742 262.318 96.3658 260.573C75.6061 257.987 53.1225 263.064 31.2338 270.583L31.2338 270.595Z" fill="#0E3740"/>
<path d="M17.0665 255.641C31.3069 244.693 71.2116 226.55 87.7465 222.616C71.7822 229.702 32.5816 248.783 18.3776 259.815C14.5656 262.775 -20.8958 293.454 -23.0203 290.338C-23.5788 289.519 -22.9232 288.28 -22.2191 287.486C-16.8167 281.387 -8.65852 276.983 -2.50346 271.738C3.94296 266.24 10.4015 260.766 17.0786 255.641L17.0665 255.641Z" fill="#0E3740"/>
<path d="M16.3622 243.875C27.0941 229.907 39.5135 216.926 54.8101 208.673C41.0917 219.633 29.6921 233.252 19.0209 247.292C16.1558 251.057 -9.4599 288.918 -12.5921 286.705C-13.4176 286.127 -13.1626 284.804 -12.7135 283.901C-9.2778 276.839 -2.51573 270.535 1.95185 264.027C6.63795 257.217 11.3362 250.42 16.3622 243.887L16.3622 243.875Z" fill="#0E3740"/>
<path d="M29.5099 281.988C46.5911 280.749 63.4902 281.531 77.3786 287.847C61.7421 284.647 44.6851 285.116 27.5675 286.452C22.9785 286.813 -21.8429 292.9 -21.1752 288.894C-21.0053 287.847 -19.7184 287.137 -18.7108 286.849C-10.9168 284.659 -2.40655 285.609 5.32673 284.611C13.4121 283.576 21.5096 282.566 29.5099 281.988Z" fill="#0E3740"/>
<path d="M21.4004 288.918C13.4971 288.81 5.46035 289.123 -2.57643 289.46C-10.2612 289.785 -18.5165 288.088 -26.3711 289.628C-27.3909 289.833 -28.7142 290.434 -28.9934 291.481C-29.3819 292.961 -23.4575 293.586 -15.6392 293.779C-14.0003 293.67 -12.3371 293.646 -10.6739 293.851C1.83044 293.911 16.5443 293.237 19.0573 293.261C35.9807 293.406 52.7584 294.416 67.7758 299C54.7858 291.409 38.2752 289.147 21.4004 288.918Z" fill="#0E3740"/>
<path d="M-22.5835 294.127C-16.5862 268.791 -13.7333 195.367 -12.8956 186.368C-9.09576 145.692 -3.34133 104.847 10.3042 66.1318C-9.82417 101.731 -18.3951 142.66 -22.4014 183.276C-24.271 202.296 -25.2057 221.389 -26.0677 240.482C-26.8082 257.025 -31.4701 275.684 -30.8995 292.407C-28.3015 293.261 -25.5699 293.863 -22.5835 294.127Z" fill="#02262E"/>
<path d="M-22.025 294.188C-21.855 294.188 -21.6729 294.176 -21.4908 294.164C-20.5075 294.079 -19.512 294.019 -18.5286 293.995C-18.1037 293.959 -17.6667 293.923 -17.2296 293.887C-8.92576 271.726 0.6164 194.224 2.25532 185.032C9.45443 144.813 18.6081 104.582 35.4587 67.1304C12.4166 100.949 0.446436 141.036 -6.95906 181.17C-10.419 199.974 -12.9442 218.923 -15.4086 237.871C-17.7395 255.821 -24.9508 275.925 -24.6715 293.863C-23.7975 293.995 -22.9234 294.115 -22.0129 294.176L-22.025 294.188Z" fill="#02262E"/>
<path d="M-7.03176 252.982C-3.69322 243.334 -0.500358 233.625 2.64394 223.916C4.4164 218.454 6.03105 212.908 8.02203 207.53C20.6964 173.387 35.2403 139.881 56.6555 111.416C29.8986 134.527 12.7081 166.974 -0.148293 200.985C-6.16981 216.914 -11.3172 233.288 -16.404 249.686C-16.4889 249.963 -16.5739 250.239 -16.671 250.516C-18.9777 257.698 -22.122 264.592 -25.072 271.534C-26.5774 275.059 -28.0342 278.608 -29.3332 282.217C-29.9767 283.998 -30.5715 285.79 -31.1178 287.607C-31.6277 289.315 -32.2833 290.964 -32.9631 292.636C-33.1088 293.009 -33.2666 293.394 -33.1938 293.791C-33.0238 294.765 -31.7248 295.006 -30.7172 294.982C-28.1921 294.934 -25.6548 294.705 -23.166 294.308C-22.8261 294.26 -22.474 294.188 -22.207 293.983C-21.952 293.791 -21.8063 293.49 -21.6728 293.213C-19.8396 289.4 -18.9413 285.417 -17.5694 281.459C-16.1247 277.285 -14.3159 273.266 -12.7862 269.128C-10.8074 263.774 -8.91349 258.384 -7.0439 252.982L-7.03176 252.982Z" fill="#02262E"/>
<path d="M45.1952 274.65C67.2053 270.716 89.7253 269.525 110.303 276.226C88.5598 273.976 66.3069 276.875 44.2847 280.93C36.6728 282.337 28.5753 284.9 21.012 286.548C17.4914 287.318 13.9586 288.064 10.4258 288.798C5.58187 289.797 0.737942 290.783 -4.13026 291.673C-7.25028 292.251 -10.3703 292.816 -13.5025 293.382C-14.5222 293.562 -15.5541 293.682 -16.5982 293.803C-20.3981 294.224 -24.2101 294.537 -28.0342 294.741C-28.1799 294.741 -28.3742 294.741 -28.4227 294.597C-28.447 294.537 -28.4227 294.464 -28.4106 294.404C-28.1678 293.598 -27.5243 292.973 -26.8809 292.407C-25.7519 291.409 -24.5379 290.494 -23.2753 289.676C-22.6561 289.267 -22.0127 288.918 -21.3814 288.533C-20.8837 288.233 -20.5559 287.763 -20.046 287.451C-18.2371 286.32 -16.0519 285.802 -13.9638 285.453C-9.19271 284.659 -4.42162 283.925 0.37374 283.264C4.97486 282.626 34.8882 276.502 45.1952 274.662L45.1952 274.65Z" fill="#02262E"/>
<path d="M18.9846 250.708C9.09034 259.298 -0.378984 268.49 -9.82403 277.73C-11.9243 279.787 -14.1581 281.7 -16.4283 283.565C-18.1036 284.936 -21.4907 286.656 -21.8064 288.99C-21.9035 289.676 -21.7942 290.386 -21.6485 291.06C-21.4543 291.974 -21.1387 292.937 -20.3738 293.466C-19.5483 294.043 -18.4314 293.971 -17.4238 293.863C-16.9624 293.815 -16.489 293.767 -16.0519 293.586C-15.6634 293.43 -15.3235 293.165 -15.0079 292.888C-8.40363 286.945 -1.89651 280.761 4.58634 274.65C10.4258 269.14 16.0588 263.353 22.0924 258.047C43.1556 239.556 65.2264 222.171 90.1016 210.67C63.5754 216.649 40.0963 232.361 18.9724 250.696L18.9846 250.708Z" fill="#02262E"/>
<path d="M15.0146 213.798C31.9865 191.625 51.7871 171.546 76.553 160.393C54.5308 176.623 36.4298 198.061 19.5671 220.379C15.0389 226.37 -25.2422 287.234 -30.511 282.65C-31.895 281.447 -31.5429 279.197 -30.8509 277.693C-25.5457 266.048 -14.7288 256.459 -7.69966 246.016C-0.330581 235.08 7.07491 224.18 15.0267 213.798L15.0146 213.798Z" fill="#02262E"/>
<path d="M-21.1387 289.243C-21.6607 294.765 -17.0474 289.664 -15.8699 287.427C-13.454 282.795 -11.4023 278.079 -8.62218 273.615C-0.548974 260.634 10.0615 248.567 20.3807 237.258C39.2465 216.577 59.2413 196.871 82.6839 182.71C56.9954 191.565 35.4102 209.756 16.4594 230.304C8.21622 239.231 0.252274 248.206 -6.94684 257.915C-14.0731 267.54 -19.6212 276.791 -21.0901 288.942C-21.1023 289.051 -21.1144 289.147 -21.1265 289.243L-21.1387 289.243Z" fill="#02262E"/>
<path d="M-5.87841 215.855C-1.48367 192.371 3.7366 169.031 9.74597 145.908C7.87639 177.188 4.05224 208.348 -1.71433 239.159C0.944362 230.894 5.67902 223.796 10.1345 216.469C22.4446 196.209 36.8428 177.321 49.2865 157.001C46.9556 160.814 46.215 166.709 44.5275 170.932C42.5851 175.817 40.3756 180.605 37.9111 185.261C33.2372 194.116 26.9364 201.334 21.8619 209.84C15.6461 220.259 9.43033 230.076 5.0963 241.517C1.41783 251.226 -2.26064 260.923 -5.95124 270.631C-0.913078 261.235 4.16151 251.803 10.6443 243.322C29.9958 217.985 64.4374 205.822 93.1731 194.296C75.3028 204.462 57.4082 214.748 41.1161 227.248C24.6662 239.869 9.60029 254.835 -0.0754124 273.182C15.2819 260.08 30.1293 249.505 48.4245 240.434C39.2708 247.929 30.1172 255.425 20.9635 262.92C14.7113 268.033 8.43484 273.182 3.15387 279.27C14.942 276.671 27.4585 277.489 38.8095 281.567C32.1931 280.713 25.4918 280.449 18.8268 280.749C13.6915 280.99 8.28916 281.676 4.14937 284.695C11.2392 284.96 17.7342 285.778 24.6419 287.282C27.5192 287.908 41.7596 291.77 41.7596 295.776C40.0721 294.152 31.489 294.537 29.0488 294.284C8.50768 292.203 -12.4584 294.946 -32.9631 297.58C-35.3183 297.881 -37.977 298.122 -39.8466 296.666C-44.3506 293.129 -34.3714 281.411 -32.4896 278.391C-26.9537 269.501 -26.2375 259.178 -23.166 249.313C-14.3158 220.944 -8.28216 191.709 -5.2107 162.174C-2.73411 179.967 -2.96477 198.122 -5.87841 215.855Z" fill="#05343E"/>
<path d="M193.733 341.619C192.482 342.588 190.787 343.427 189.55 343.175C189.386 342.467 189.222 341.759 189.031 341.071C188.988 340.861 188.935 340.654 188.889 340.434C194.362 328.009 249.543 273.374 255.431 266.991C279.314 241.077 302.344 214.045 320.193 184.091C307.47 215.632 285.75 244.2 262.001 270.184C250.883 282.355 239.25 294.061 227.597 305.739C216.466 316.888 206.016 332.077 193.733 341.619Z" fill="#115361"/>
<path d="M188.431 338.49C188.242 337.7 188.012 336.924 187.758 336.143C191.732 323.927 243.461 265.02 248.897 258.23C270.835 230.8 291.831 202.324 307.315 171.42C297.127 203.446 277.611 233.315 255.816 260.812C245.606 273.694 234.848 286.155 224.06 298.591C213.751 310.467 204.489 326.257 192.875 336.651C191.59 337.798 189.753 338.871 188.441 338.487L188.431 338.49Z" fill="#115361"/>
<path d="M207.021 339.219C207.189 338.419 207.322 337.619 207.419 336.808C216.253 327.422 288.241 296 296.063 292.152C327.653 276.599 358.825 259.703 386.085 238.286C363.139 262.982 332.688 281.764 301.204 297.44C286.459 304.779 271.393 311.514 256.31 318.199C241.899 324.586 226.76 334.96 211.815 339.448C210.168 339.937 208.046 340.128 207.024 339.229L207.021 339.219Z" fill="#115361"/>
<path d="M239.966 268.862C232.818 281.395 224.972 293.744 217.072 306.064C209.527 317.828 204.222 332.455 194.868 343.353C193.812 344.585 192.115 345.893 190.566 345.828C190.294 345.243 190.015 344.671 189.764 344.046C189.72 343.904 189.683 343.748 189.646 343.592C189.597 343.362 189.53 343.148 189.481 342.918C192.427 329.782 228.155 274.821 231.861 268.401C247.295 241.642 261.409 214.289 268.984 186.267C267.39 213.959 255.227 242.09 239.966 268.862Z" fill="#115361"/>
<path d="M256.341 290.87C274.279 274.883 290.574 256.974 299.773 236.349C286.538 255.494 269.18 272.26 251.121 288.184C246.275 292.458 197.094 331.445 200.714 334.952C201.663 335.873 203.468 335.312 204.683 334.589C214.066 328.994 221.863 319.384 230.303 312.599C239.136 305.49 247.94 298.357 256.354 290.877L256.341 290.87Z" fill="#115361"/>
<path d="M271.751 294.574C292.83 283.883 313.018 270.757 327.656 252.761C309.838 268.051 289.046 279.702 267.88 290.297C262.209 293.142 205.898 317.583 208.074 322.197C208.643 323.415 210.446 323.39 211.761 323.026C221.932 320.222 231.912 312.891 241.611 308.605C251.753 304.114 261.882 299.583 271.764 294.581L271.751 294.574Z" fill="#115361"/>
<path d="M224.482 268.395C230.246 246.416 233.308 224.171 228.317 204.563C228.772 225.714 224.016 247.861 218.112 269.862C216.529 275.766 197.633 332.784 203.093 332.873C204.528 332.896 205.78 331.391 206.393 330.14C211.177 320.496 211.985 309.163 215.165 299.313C218.495 289.005 221.788 278.685 224.482 268.395Z" fill="#115361"/>
<path d="M213.353 277.344C217.123 255.281 218.124 233.208 211.23 214.459C213.675 235.138 210.948 257.267 207.045 279.371C205.997 285.299 192.231 342.9 197.769 342.484C199.221 342.379 200.343 340.78 200.858 339.505C204.792 329.622 204.544 318.438 206.83 308.499C209.229 298.089 211.587 287.691 213.356 277.354L213.353 277.344Z" fill="#115361"/>
<path d="M209.386 287.193C206.594 297.713 203.363 308.125 200.116 318.52C197.17 327.928 195.678 339.228 191.886 348.341C191.109 346.998 190.378 345.585 189.771 344.032C189.727 343.89 189.69 343.734 189.653 343.578C189.53 343.002 189.374 342.426 189.23 341.857C192.833 324.756 203.331 291.808 204.532 287.317C210.583 264.847 215.8 241.976 217.053 218.977C219.304 241.345 215.344 264.717 209.396 287.189L209.386 287.193Z" fill="#0E3740"/>
<path d="M202.859 283.596C200.831 294.259 198.343 304.853 195.829 315.433C193.64 324.673 192.934 335.539 190.069 344.699C189.975 344.471 189.868 344.27 189.775 344.043C189.73 343.9 189.693 343.744 189.656 343.589C189.472 342.742 189.264 341.891 189.028 341.061C188.576 338.992 188.132 336.875 187.305 334.867C190.281 316.867 197.174 288.354 197.982 284.186C202.42 261.413 205.983 238.321 205.565 215.483C209.463 237.362 207.195 260.822 202.856 283.586L202.859 283.596Z" fill="#0E3740"/>
<path d="M196.007 293.136C195.671 302.659 194.865 312.295 194.021 321.921C193.242 330.812 194.489 340.613 192.638 349.603C191.55 347.91 190.577 346.081 189.771 344.032C189.727 343.89 189.69 343.734 189.656 343.588C189.472 342.742 189.264 341.891 189.028 341.061C188.846 340.258 188.671 339.442 188.476 338.632C188.762 322.618 190.947 298.893 191.093 295.344C191.909 274.957 191.771 254.611 187.581 235.881C195.194 252.599 196.724 272.792 196.017 293.133L196.007 293.136Z" fill="#0E3740"/>
<path d="M212.444 301.052C218.066 286.214 223.135 247.956 222.181 233.053C220.299 248.313 214.247 286.229 208.544 301.058C207.015 305.038 190.103 342.892 193.312 343.847C194.155 344.099 195.041 343.221 195.534 342.42C199.326 336.276 200.954 328.271 203.821 321.721C206.828 314.861 209.812 307.997 212.441 301.042L212.444 301.052Z" fill="#0E3740"/>
<path d="M222.657 298.525C231.767 285.829 239.596 271.979 242.646 256.97C236.878 271.373 228.239 284.537 219.052 297.201C216.588 300.601 190.99 332.103 193.693 334.143C194.4 334.682 195.462 334.117 196.114 333.502C201.238 328.751 204.85 321.412 209.234 315.943C213.818 310.211 218.388 304.472 222.647 298.528L222.657 298.525Z" fill="#0E3740"/>
<path d="M186.744 297.599C183.351 282.951 178.282 268.992 169.28 259.022C176.081 271.283 180.125 285.706 183.446 300.409C184.334 304.352 190.821 343.539 194.062 341.918C194.91 341.498 195.18 340.231 195.164 339.31C194.999 332.196 191.972 325.314 190.809 318.566C189.584 311.514 188.336 304.459 186.744 297.599Z" fill="#0E3740"/>
<path d="M182.95 306.233C185.101 312.83 186.928 319.65 188.735 326.476C190.46 333.005 194.056 339.476 194.79 346.468C194.881 347.377 194.713 348.646 193.894 349.157C192.734 349.875 190.657 345.074 188.456 338.571C188.122 337.168 187.709 335.768 187.101 334.428C183.793 323.961 180.534 311.448 179.858 309.348C175.327 295.199 170.094 281.402 162.275 270.027C172.13 278.906 178.359 292.147 182.95 306.233Z" fill="#0E3740"/>
<path d="M189.968 344.484C210.002 332.746 271.844 310.905 279.297 307.819C312.978 293.859 346.294 278.216 375.739 256.522C350.639 282.825 317.985 300.852 284.408 314.969C268.683 321.574 252.652 327.415 236.602 333.195C222.695 338.198 208.004 347.049 193.601 351C192.196 349.048 190.972 346.918 189.968 344.484Z" fill="#02262E"/>
<path d="M189.772 344.032C189.727 343.89 189.69 343.734 189.653 343.578C189.469 342.731 189.26 341.881 189.025 341.05C188.945 340.684 188.862 340.309 188.779 339.933C205.505 327.101 269.08 298.573 276.488 294.764C308.894 278.076 340.802 259.746 368.335 235.699C345.512 263.974 314.461 284.627 282.18 301.466C267.053 309.347 251.56 316.483 236.051 323.568C221.358 330.277 206.101 341.647 190.738 346.165C190.397 345.467 190.067 344.766 189.779 344.019L189.772 344.032Z" fill="#02262E"/>
<path d="M220.988 320.549C228.343 315.194 235.786 309.946 243.243 304.738C247.437 301.806 251.744 298.983 255.809 295.889C281.61 276.22 306.381 255.153 325.065 229.661C312.336 258.213 289.157 281.218 263.516 301.005C251.507 310.272 238.892 318.925 226.239 327.532C226.026 327.677 225.812 327.821 225.601 327.976C220.08 331.812 215.023 336.274 209.875 340.586C207.262 342.782 204.617 344.943 201.879 346.988C200.529 347.999 199.156 348.973 197.749 349.912C196.426 350.792 195.192 351.778 193.944 352.791C193.664 353.012 193.377 353.246 193.019 353.29C192.144 353.406 191.601 352.381 191.359 351.53C190.742 349.4 190.276 347.212 189.966 345.021C189.918 344.723 189.888 344.409 189.993 344.131C190.091 343.866 190.309 343.664 190.51 343.479C193.283 340.932 196.444 339.124 199.46 336.926C202.642 334.609 205.596 332.028 208.725 329.649C212.773 326.572 216.874 323.557 220.991 320.559L220.988 320.549Z" fill="#02262E"/>
<path d="M188.914 282.506C186.533 263.013 181.681 243.819 170.609 228.344C178.191 245.975 181.517 265.398 183.798 284.933C184.581 291.687 184.506 299.154 185.072 305.931C185.332 309.086 185.617 312.246 185.912 315.401C186.322 319.727 186.743 324.049 187.253 328.365C187.573 331.134 187.904 333.899 188.238 336.675C188.35 337.577 188.516 338.474 188.686 339.381C189.317 342.678 190.043 345.957 190.865 349.217C190.903 349.339 190.954 349.502 191.089 349.504C191.147 349.509 191.202 349.469 191.25 349.443C191.874 349.026 192.24 348.321 192.554 347.632C193.111 346.421 193.574 345.161 193.943 343.886C194.13 343.258 194.26 342.627 194.423 341.995C194.55 341.499 194.865 341.099 194.999 340.589C195.491 338.773 195.363 336.804 195.116 334.961C194.55 330.751 193.933 326.557 193.248 322.362C192.592 318.336 190.019 291.638 188.903 282.51L188.914 282.506Z" fill="#02262E"/>
<path d="M216.149 298.137C211.404 308.707 206.037 319.079 200.621 329.445C199.415 331.75 198.366 334.13 197.368 336.527C196.636 338.294 196.052 341.59 194.144 342.472C193.585 342.735 192.952 342.832 192.34 342.888C191.51 342.968 190.607 342.958 189.956 342.457C189.249 341.918 189.02 340.962 188.85 340.089C188.77 339.69 188.688 339.28 188.728 338.866C188.76 338.499 188.897 338.144 189.051 337.806C192.396 330.695 195.972 323.602 199.493 316.549C202.668 310.194 206.133 303.939 209.084 297.475C219.358 274.92 228.427 251.813 231.75 227.913C233.564 251.734 226.287 275.579 216.162 298.144L216.149 298.137Z" fill="#02262E"/>
<path d="M248.645 291.688C263.123 271.587 275.08 249.669 278.134 225.954C270.038 248.714 256.479 269.567 241.849 289.614C237.922 294.998 196.537 344.887 201.817 348.09C203.203 348.932 205.029 348.04 206.13 347.062C214.675 339.53 220.03 327.922 227.1 319.263C234.502 310.189 241.863 301.094 248.642 291.678L248.645 291.688Z" fill="#02262E"/>
<path d="M193.755 341.98C189.184 343.88 192.331 338.661 193.931 337.081C197.25 333.829 200.735 330.86 203.816 327.347C212.777 317.141 220.299 305.05 227.25 293.404C239.963 272.11 251.552 250.128 257.515 226.726C256.659 250.606 246.777 273.519 234.199 294.849C228.737 304.124 223.162 313.177 216.762 321.784C210.414 330.307 203.974 337.409 193.999 341.859C193.91 341.898 193.831 341.934 193.752 341.969L193.755 341.98Z" fill="#02262E"/>
<path d="M252.334 309.748C271.206 299.843 289.741 289.284 307.885 278.122C281.71 287.975 256.146 299.434 231.386 312.43C237.738 308.012 242.555 302.162 247.639 296.487C261.702 280.8 274.051 263.727 288.129 247.913C285.486 250.877 280.654 253.059 277.494 255.593C273.837 258.515 270.331 261.635 267.004 264.935C260.674 271.198 256.163 278.392 250.235 284.899C242.973 292.87 236.225 300.681 227.601 307.345C220.284 313 212.977 318.653 205.663 324.318C212.359 317.606 219.077 310.853 224.618 303.172C241.173 280.238 242.568 248.144 244.907 221.002C240.897 238.675 236.791 256.401 230.38 273.37C223.908 290.503 215.076 307.097 201.958 320.068C209.125 303.724 214.271 288.476 217.237 270.736C213.233 280.395 209.229 290.054 205.225 299.713C202.495 306.308 199.741 312.934 195.928 318.973C195.072 308.403 191.114 298.127 184.681 289.692C187.132 295.012 189.104 300.56 190.584 306.227C191.716 310.595 192.539 315.306 191.044 319.576C188.971 313.703 186.582 308.475 183.5 303.082C182.218 300.836 175.216 289.921 171.801 290.982C173.625 291.967 175.533 299.264 176.384 301.243C183.509 317.911 186.633 336.214 189.729 354.101C190.086 356.155 190.574 358.447 192.302 359.629C196.49 362.468 203.878 350.998 205.962 348.621C212.098 341.625 220.71 338.29 228.319 333.102C250.194 318.169 273.542 305.367 297.917 294.968C282.105 297.606 266.691 302.608 252.334 309.748Z" fill="#05343E"/>
<path d="M406.765 308.077C406.965 310.097 406.718 312.51 405.593 313.676C404.707 313.367 403.821 313.058 402.937 312.793C402.678 312.695 402.416 312.611 402.144 312.509C392.324 298.053 370.525 200.79 367.594 190.032C355.681 146.379 341.959 102.882 321.486 62.9905C347.215 98.421 363.514 141.554 375.595 185.11C381.259 205.504 386.06 226.138 390.819 246.774C395.355 266.482 404.775 288.225 406.765 308.077Z" fill="#104A56"/>
<path d="M399.964 310.913C399.193 310.653 398.41 310.437 397.611 310.239C389.415 300.009 367.565 221.403 364.761 212.816C353.421 178.145 340.682 143.752 322.896 112.99C344.506 139.601 359.228 173.424 370.703 208.002C376.079 224.202 380.801 240.664 385.487 257.139C389.956 272.879 398.311 289.811 400.817 305.916C401.092 307.697 401.005 309.933 399.967 310.902L399.964 310.913Z" fill="#104A56"/>
<path d="M397.568 195.299C384.546 166.871 368.481 139.741 346.26 120.371C365.061 144.179 379.284 172.188 392.18 200.742C395.642 208.403 425.288 284.476 431.08 281.336C432.602 280.513 432.602 278.056 432.169 276.27C428.819 262.468 419.83 249.084 414.624 235.994C409.167 222.289 403.668 208.613 397.582 195.285L397.568 195.299Z" fill="#104A56"/>
<path d="M420.947 250.619C417.108 239.427 413.438 228.165 409.823 216.902C407.785 210.566 405.928 204.133 403.639 197.895C389.068 158.288 372.347 119.422 347.725 86.4023C378.488 113.211 398.252 150.85 413.033 190.303C419.956 208.78 425.874 227.774 431.722 246.796C431.82 247.116 431.917 247.437 432.029 247.758C434.681 256.09 438.296 264.087 441.688 272.139C443.418 276.228 445.093 280.345 446.587 284.532C447.327 286.597 448.01 288.677 448.639 290.784C449.225 292.766 449.978 294.678 450.76 296.617C450.928 297.05 451.109 297.497 451.025 297.957C450.83 299.088 449.336 299.367 448.178 299.339C445.275 299.283 442.358 299.018 439.496 298.557C439.106 298.501 438.701 298.418 438.394 298.18C438.101 297.957 437.933 297.608 437.78 297.287C435.672 292.863 434.639 288.244 433.062 283.653C431.401 278.81 429.321 274.149 427.563 269.348C425.288 263.138 423.11 256.885 420.961 250.619H420.947Z" fill="#02262E"/>
<path fill-rule="evenodd" clip-rule="evenodd" d="M329.137 191.546C329.059 195.235 329.486 198.916 330.879 202.408C331.379 203.664 332.022 204.819 333.054 205.582C334.98 207.005 336.817 206.198 337.183 203.665C337.636 200.528 337.233 197.329 336.921 194.149C336.414 188.989 335.664 183.84 335.585 178.662C335.546 176.097 335.779 173.603 336.661 171.291C338.652 166.076 343.989 164.947 347.776 169.019C350.956 172.438 352.387 176.79 352.828 181.64C353.513 189.162 351.82 196.143 350.604 203.232C349.82 207.807 348.626 212.242 348.089 216.904C347.867 218.827 348.036 220.708 348.462 222.597C349.098 225.422 350.987 227.386 353.204 227.571C355.296 227.745 357.005 226.094 357.611 223.208C358.227 220.277 358.053 217.206 358.119 214.182C358.202 210.372 358.311 206.573 359.2 202.938C359.281 202.605 359.37 202.274 359.463 201.947C361.101 196.209 363.93 193.859 367.897 194.94C372.612 196.225 376.045 201.14 376.051 206.731C376.057 212.581 374.963 218.15 373.645 223.626C372.04 230.301 370.229 236.891 368.605 243.559C367.513 248.041 366.895 252.658 367.16 257.468C367.252 259.135 367.588 260.715 368.256 262.21C368.802 263.433 369.621 264.388 370.807 264.346C371.882 264.308 372.342 263.242 372.663 262.171C373.672 258.796 373.798 255.193 373.836 251.598C373.915 244.177 375.126 237.248 378.612 231.22C379.955 228.895 381.628 227.108 384.017 226.417C389.824 226.812 391.564 231.563 391.976 237.169C392.08 238.579 392.058 239.993 392.093 241.405C392.349 243.576 392.246 245.658 391.35 247.542C389.419 256.693 386.285 265.389 385.495 274.973C385.28 277.578 385.251 280.173 385.91 282.774C386.317 284.38 387.076 285.651 388.445 286.262C391.425 287.593 393.284 285.803 392.936 281.922C392.628 278.489 391.507 275.26 390.623 271.969C389.244 266.826 392.934 261.429 397.196 262.338C399.438 262.816 400.939 264.616 402.139 266.825C404.34 270.879 405.007 275.394 405.354 279.943C405.682 284.254 405.795 288.571 406.003 292.885C406.255 293.599 406.309 294.32 406.173 295.047C406.14 298.757 405.492 302.327 405.035 305.942C404.894 307.055 404.497 307.636 403.495 307.707C400.941 307.888 398.525 309.047 395.888 308.678C395.784 308.627 395.656 308.218 395.586 308.682C395.358 309.459 394.72 309.257 394.243 309.344C383.287 311.342 372.321 313.281 361.375 315.333C359.795 315.63 359.488 314.946 359.613 313.348C359.805 310.876 361.097 309.354 362.679 308.139C364.877 306.452 367.367 305.872 370.053 306.127C371.716 306.285 373.355 306.373 374.913 305.568C377.298 304.335 378.383 302.306 377.862 299.777C377.334 297.214 375.607 295.858 372.856 295.851C369.252 295.843 365.918 297.092 362.594 298.331C360.602 299.073 358.698 300.1 356.706 300.843C349.1 303.684 341.595 302.626 334.286 297.885C331.477 296.062 329.294 293.367 328.256 289.685C326.097 282.025 330.826 274.871 337.549 275.517C339.522 275.706 341.415 276.48 343.333 277.065C346.009 277.882 348.668 278.832 351.416 279.046C352.499 279.13 353.551 279.04 354.505 278.472C357.139 276.903 357.311 273.267 354.766 271.134C351.743 268.6 348.378 268.161 344.977 268.709C339.334 269.617 333.86 271.397 328.187 272.16C324.435 272.666 320.673 272.859 316.888 271.591C311.444 269.767 307.496 264.448 307.111 258.449C306.766 253.071 309.82 249.147 314.298 249.21C317.956 249.261 321.476 250.561 325.018 251.698C328.204 252.72 331.348 254.065 334.657 254.176C336.304 254.232 337.546 253.594 338.127 251.751C338.739 249.807 337.91 248.245 336.66 247.037C333.715 244.189 330.252 243.604 326.802 243.778C321.914 244.027 317.068 244.735 312.185 245.06C303.729 245.623 295.369 244.858 287.451 239.75C285.466 238.469 283.549 237.035 281.957 235.05C278.446 230.67 277.86 224.759 280.415 219.532C282.862 214.526 287.294 212.415 291.935 214.164C297.767 216.361 303.233 219.774 308.842 222.709C312.066 224.395 315.272 226.137 318.636 227.31C319.556 227.631 320.506 227.812 321.447 227.994C322.94 228.283 323.951 227.516 324.536 225.971C325.134 224.394 324.563 223.066 323.57 221.928C321.706 219.79 319.412 218.628 317.048 217.698C313.204 216.184 309.26 215.263 305.356 214.102C296.661 211.518 288.031 208.664 279.752 204.172C274.278 201.201 271.196 201.109 266.94 195.983C261.949 189.97 261.627 184.25 265.04 179.914C266.063 178.614 270.343 176.866 271.734 176.65C274.178 176.27 276.578 176.691 278.965 177.469C283.94 179.089 288.638 181.583 293.017 185.014C295.418 186.896 297.792 188.83 300.185 190.726C301.207 191.535 302.274 192.249 303.447 192.638C304.366 192.943 305.243 192.909 305.808 191.896C306.364 190.901 306.41 189.865 305.838 188.717C304.998 187.036 303.769 185.846 302.489 184.717C298.687 181.363 294.521 178.768 290.48 175.913C284.291 171.541 278.506 166.547 274.091 159.594C268.62 150.978 267.534 142.055 271.616 132.896C274.22 127.054 278.622 125.281 283.975 128.079C289.796 131.121 293.989 136.521 297.817 142.418C301.097 147.47 303.043 153.208 304.751 159.097C306.038 163.533 307.59 167.863 309.606 171.954C310.189 173.138 310.885 174.269 311.638 175.315C312.279 176.205 313.092 177.054 314.139 176.498C315.26 175.903 315.392 174.652 315.229 173.292C314.996 171.357 314.322 169.572 313.652 167.782C312.34 164.279 310.912 160.826 309.974 157.16C309.013 153.403 308.829 149.711 309.955 146.13C311.505 141.198 314.996 139.435 319.192 141.774C324.4 144.676 327.867 149.457 329.295 156.145C329.548 157.329 329.761 158.521 329.993 159.709C330.972 170.471 329.364 180.927 329.137 191.546Z" fill="#0E3740"/>
</g>
<defs>
<clipPath id="clip0_4176_62844">
<rect width="375" height="290" fill="white"/>
</clipPath>
<clipPath id="clip1_4176_62844">
<rect width="280" height="155" fill="white" transform="translate(5.08105 57)"/>
</clipPath>
</defs>
</svg>
