<svg width="375" height="812" viewBox="0 0 375 812" fill="none" xmlns="http://www.w3.org/2000/svg">
<g clip-path="url(#clip0_4176_62843)">
<rect width="375" height="812" fill="#032E37"/>
<g opacity="0.5">
<path fill-rule="evenodd" clip-rule="evenodd" d="M341.795 19.1469C344.226 19.663 345.778 22.0522 345.262 24.4833L337.532 60.8967C337.016 63.3278 334.627 64.8802 332.195 64.3641C329.764 63.848 328.212 61.4588 328.728 59.0277L336.458 22.6143C336.974 20.1832 339.364 18.6308 341.795 19.1469Z" fill="#0A404B"/>
<path fill-rule="evenodd" clip-rule="evenodd" d="M342.314 86.3687C344.733 86.9404 346.23 89.3645 345.658 91.7832L337.085 128.056C336.513 130.475 334.089 131.972 331.67 131.4C329.251 130.829 327.754 128.405 328.326 125.986L336.899 89.7129C337.471 87.2943 339.895 85.797 342.314 86.3687Z" fill="#0A404B"/>
<path fill-rule="evenodd" clip-rule="evenodd" d="M342.928 153.6C345.33 154.237 346.761 156.701 346.125 159.103L336.567 195.165C335.93 197.568 333.467 198.999 331.065 198.362C328.662 197.726 327.231 195.262 327.868 192.86L337.425 156.798C338.062 154.395 340.525 152.964 342.928 153.6Z" fill="#0A404B"/>
<path fill-rule="evenodd" clip-rule="evenodd" d="M343.716 220.989C346.094 221.711 347.436 224.225 346.714 226.603L335.892 262.243C335.17 264.621 332.657 265.963 330.279 265.241C327.901 264.519 326.558 262.006 327.28 259.628L338.103 223.988C338.825 221.61 341.338 220.267 343.716 220.989Z" fill="#0A404B"/>
<path fill-rule="evenodd" clip-rule="evenodd" d="M344.671 288.395C347.016 289.22 348.248 291.789 347.423 294.134L335.054 329.282C334.229 331.626 331.66 332.858 329.316 332.033C326.971 331.208 325.739 328.639 326.564 326.294L338.933 291.146C339.758 288.802 342.327 287.57 344.671 288.395Z" fill="#0A404B"/>
<path fill-rule="evenodd" clip-rule="evenodd" d="M345.982 356.052C348.272 357.018 349.345 359.657 348.378 361.947L333.902 396.252C332.935 398.541 330.296 399.614 328.006 398.648C325.716 397.682 324.644 395.042 325.61 392.753L340.087 358.448C341.053 356.158 343.692 355.085 345.982 356.052Z" fill="#0A404B"/>
<path opacity="0.7" fill-rule="evenodd" clip-rule="evenodd" d="M347.723 423.973C349.925 425.125 350.776 427.844 349.624 430.046L332.336 463.086C331.184 465.288 328.465 466.139 326.263 464.987C324.061 463.834 323.21 461.115 324.362 458.913L341.65 425.874C342.802 423.672 345.521 422.821 347.723 423.973Z" fill="#0A404B"/>
<path opacity="0.5" fill-rule="evenodd" clip-rule="evenodd" d="M350.175 492.592C352.217 494.009 352.724 496.813 351.307 498.854L330.083 529.433C328.666 531.475 325.862 531.981 323.821 530.564C321.779 529.147 321.273 526.343 322.69 524.302L343.913 493.723C345.33 491.681 348.134 491.175 350.175 492.592Z" fill="#0A404B"/>
<path opacity="0.3" fill-rule="evenodd" clip-rule="evenodd" d="M353.576 562.605C355.308 564.388 355.266 567.236 353.484 568.968L326.779 594.908C324.996 596.639 322.148 596.598 320.416 594.815C318.684 593.032 318.726 590.183 320.508 588.452L347.213 562.512C348.996 560.781 351.845 560.822 353.576 562.605Z" fill="#0A404B"/>
<path opacity="0.2" fill-rule="evenodd" clip-rule="evenodd" d="M357.668 635.414C358.789 637.632 357.899 640.339 355.681 641.46L322.441 658.261C320.223 659.382 317.516 658.493 316.395 656.275C315.274 654.057 316.163 651.35 318.381 650.229L351.621 633.428C353.84 632.307 356.546 633.196 357.668 635.414Z" fill="#0A404B"/>
<path opacity="0.1" fill-rule="evenodd" clip-rule="evenodd" d="M357.5 714C357.5 716.485 355.485 718.5 353 718.5L317 718.5C314.515 718.5 312.5 716.485 312.5 714C312.5 711.515 314.515 709.5 317 709.5L353 709.5C355.485 709.5 357.5 711.515 357.5 714Z" fill="#0A404B"/>
<path fill-rule="evenodd" clip-rule="evenodd" d="M264.858 18.7181C267.331 18.9714 269.13 21.1809 268.876 23.6532L265.082 60.6995C264.828 63.1719 262.619 64.9708 260.146 64.7175C257.674 64.4643 255.875 62.2547 256.128 59.7824L259.923 22.7361C260.176 20.2638 262.386 18.4649 264.858 18.7181Z" fill="#0A404B"/>
<path fill-rule="evenodd" clip-rule="evenodd" d="M265.123 85.8564C267.593 86.1375 269.367 88.3671 269.086 90.8365L264.869 127.883C264.588 130.352 262.358 132.126 259.889 131.845C257.42 131.564 255.646 129.334 255.927 126.865L260.143 89.8187C260.425 87.3493 262.654 85.5754 265.123 85.8564Z" fill="#0A404B"/>
<path fill-rule="evenodd" clip-rule="evenodd" d="M265.46 153.066C267.925 153.38 269.669 155.634 269.354 158.099L264.646 195.005C264.331 197.47 262.078 199.214 259.612 198.899C257.147 198.585 255.403 196.331 255.718 193.866L260.426 156.96C260.741 154.495 262.994 152.751 265.46 153.066Z" fill="#0A404B"/>
<path fill-rule="evenodd" clip-rule="evenodd" d="M265.896 220.212C268.355 220.573 270.056 222.858 269.696 225.317L264.285 262.223C263.924 264.682 261.638 266.383 259.179 266.023C256.72 265.662 255.019 263.376 255.38 260.917L260.791 224.012C261.151 221.553 263.437 219.852 265.896 220.212Z" fill="#0A404B"/>
<path fill-rule="evenodd" clip-rule="evenodd" d="M266.421 287.427C268.871 287.845 270.519 290.169 270.101 292.619L263.847 329.314C263.429 331.764 261.104 333.411 258.655 332.994C256.205 332.576 254.557 330.252 254.975 327.802L261.229 291.107C261.647 288.657 263.971 287.009 266.421 287.427Z" fill="#0A404B"/>
<path fill-rule="evenodd" clip-rule="evenodd" d="M267.116 354.737C269.552 355.229 271.127 357.604 270.634 360.04L263.256 396.523C262.763 398.959 260.389 400.535 257.953 400.042C255.517 399.549 253.941 397.175 254.434 394.739L261.813 358.255C262.306 355.819 264.68 354.244 267.116 354.737Z" fill="#0A404B"/>
<path opacity="0.7" fill-rule="evenodd" clip-rule="evenodd" d="M268.179 422.051C270.588 422.661 272.048 425.108 271.439 427.517L262.303 463.649C261.694 466.059 259.246 467.518 256.837 466.909C254.428 466.3 252.968 463.853 253.577 461.443L262.713 425.311C263.322 422.902 265.77 421.442 268.179 422.051Z" fill="#0A404B"/>
<path opacity="0.5" fill-rule="evenodd" clip-rule="evenodd" d="M269.837 489.702C272.194 490.491 273.465 493.041 272.676 495.398L260.87 530.687C260.082 533.043 257.532 534.315 255.175 533.526C252.818 532.738 251.547 530.188 252.335 527.831L264.141 492.542C264.93 490.185 267.48 488.914 269.837 489.702Z" fill="#0A404B"/>
<path opacity="0.3" fill-rule="evenodd" clip-rule="evenodd" d="M272.789 557.986C275.017 559.088 275.929 561.787 274.828 564.015L258.313 597.405C257.211 599.633 254.512 600.546 252.284 599.444C250.057 598.342 249.144 595.643 250.246 593.415L266.76 560.025C267.862 557.797 270.561 556.884 272.789 557.986Z" fill="#0A404B"/>
<path opacity="0.2" fill-rule="evenodd" clip-rule="evenodd" d="M278.47 629.13C280.267 630.847 280.332 633.695 278.616 635.492L252.895 662.416C251.178 664.213 248.33 664.278 246.533 662.561C244.736 660.844 244.67 657.996 246.387 656.199L272.108 629.275C273.825 627.478 276.673 627.413 278.47 629.13Z" fill="#0A404B"/>
<path opacity="0.1" fill-rule="evenodd" clip-rule="evenodd" d="M283.5 714C283.5 716.485 281.485 718.5 279 718.5L243 718.5C240.515 718.5 238.5 716.485 238.5 714C238.5 711.515 240.515 709.5 243 709.5L279 709.5C281.485 709.5 283.5 711.515 283.5 714Z" fill="#0A404B"/>
<path fill-rule="evenodd" clip-rule="evenodd" d="M188 18.5C190.485 18.5 192.5 20.5147 192.5 23L192.5 59C192.5 61.4853 190.485 63.5 188 63.5C185.515 63.5 183.5 61.4853 183.5 59L183.5 23C183.5 20.5147 185.515 18.5 188 18.5Z" fill="#0A404B"/>
<path fill-rule="evenodd" clip-rule="evenodd" d="M183.5 126L183.5 90C183.5 87.5147 185.515 85.5 188 85.5C190.485 85.5 192.5 87.5147 192.5 90L192.5 126C192.5 128.485 190.485 130.5 188 130.5C185.515 130.5 183.5 128.485 183.5 126Z" fill="#0A404B"/>
<path fill-rule="evenodd" clip-rule="evenodd" d="M183.5 193L183.5 157C183.5 154.515 185.515 152.5 188 152.5C190.485 152.5 192.5 154.515 192.5 157L192.5 193C192.5 195.485 190.485 197.5 188 197.5C185.515 197.5 183.5 195.485 183.5 193Z" fill="#0A404B"/>
<path fill-rule="evenodd" clip-rule="evenodd" d="M183.5 260L183.5 224C183.5 221.515 185.515 219.5 188 219.5C190.485 219.5 192.5 221.515 192.5 224L192.5 260C192.5 262.485 190.485 264.5 188 264.5C185.515 264.5 183.5 262.485 183.5 260Z" fill="#0A404B"/>
<path fill-rule="evenodd" clip-rule="evenodd" d="M188 286.5C190.485 286.5 192.5 288.515 192.5 291L192.5 327C192.5 329.485 190.485 331.5 188 331.5C185.515 331.5 183.5 329.485 183.5 327L183.5 291C183.5 288.515 185.515 286.5 188 286.5Z" fill="#0A404B"/>
<path fill-rule="evenodd" clip-rule="evenodd" d="M183.5 394L183.5 358C183.5 355.515 185.515 353.5 188 353.5C190.485 353.5 192.5 355.515 192.5 358L192.5 394C192.5 396.485 190.485 398.5 188 398.5C185.515 398.5 183.5 396.485 183.5 394Z" fill="#0A404B"/>
<path opacity="0.7" fill-rule="evenodd" clip-rule="evenodd" d="M183.5 461L183.5 425C183.5 422.515 185.515 420.5 188 420.5C190.485 420.5 192.5 422.515 192.5 425L192.5 461C192.5 463.485 190.485 465.5 188 465.5C185.515 465.5 183.5 463.485 183.5 461Z" fill="#0A404B"/>
<path opacity="0.5" fill-rule="evenodd" clip-rule="evenodd" d="M183.5 529L183.5 493C183.5 490.515 185.515 488.5 188 488.5C190.485 488.5 192.5 490.515 192.5 493L192.5 529C192.5 531.485 190.485 533.5 188 533.5C185.515 533.5 183.5 531.485 183.5 529Z" fill="#0A404B"/>
<path opacity="0.3" fill-rule="evenodd" clip-rule="evenodd" d="M183.5 596L183.5 560C183.5 557.515 185.515 555.5 188 555.5C190.485 555.5 192.5 557.515 192.5 560L192.5 596C192.5 598.485 190.485 600.5 188 600.5C185.515 600.5 183.5 598.485 183.5 596Z" fill="#0A404B"/>
<path opacity="0.2" fill-rule="evenodd" clip-rule="evenodd" d="M183.5 664L183.5 628C183.5 625.515 185.515 623.5 188 623.5C190.485 623.5 192.5 625.515 192.5 628L192.5 664C192.5 666.485 190.485 668.5 188 668.5C185.515 668.5 183.5 666.485 183.5 664Z" fill="#0A404B"/>
<path fill-rule="evenodd" clip-rule="evenodd" d="M116.299 64.7061C113.83 64.997 111.594 63.2319 111.303 60.7637L106.946 23.7879C106.655 21.3196 108.42 19.083 110.888 18.7922C113.357 18.5013 115.593 20.2664 115.884 22.7346L120.241 59.7104C120.532 62.1786 118.767 64.4153 116.299 64.7061Z" fill="#0A404B"/>
<path fill-rule="evenodd" clip-rule="evenodd" d="M116.559 131.761C114.094 132.081 111.837 130.341 111.518 127.877L106.74 90.9709C106.42 88.5062 108.16 86.2495 110.624 85.9303C113.089 85.6112 115.346 87.3505 115.665 89.8152L120.444 126.721C120.763 129.186 119.024 131.442 116.559 131.761Z" fill="#0A404B"/>
<path fill-rule="evenodd" clip-rule="evenodd" d="M116.992 198.889C114.534 199.254 112.245 197.557 111.88 195.099L106.399 158.193C106.033 155.735 107.73 153.446 110.189 153.081C112.647 152.716 114.936 154.412 115.301 156.871L120.782 193.776C121.147 196.235 119.451 198.524 116.992 198.889Z" fill="#0A404B"/>
<path fill-rule="evenodd" clip-rule="evenodd" d="M117.431 265.936C114.98 266.348 112.659 264.696 112.247 262.245L106.062 225.48C105.65 223.029 107.303 220.708 109.754 220.295C112.204 219.883 114.525 221.536 114.938 223.987L121.122 260.752C121.534 263.203 119.882 265.524 117.431 265.936Z" fill="#0A404B"/>
<path fill-rule="evenodd" clip-rule="evenodd" d="M118.043 332.903C115.604 333.381 113.239 331.792 112.761 329.353L105.593 292.798C105.114 290.36 106.704 287.995 109.143 287.517C111.581 287.038 113.946 288.628 114.424 291.067L121.593 327.621C122.071 330.06 120.481 332.424 118.043 332.903Z" fill="#0A404B"/>
<path fill-rule="evenodd" clip-rule="evenodd" d="M118.827 399.867C116.406 400.43 113.988 398.924 113.425 396.503L104.992 360.23C104.429 357.809 105.935 355.391 108.356 354.828C110.777 354.265 113.195 355.771 113.758 358.192L122.191 394.465C122.754 396.886 121.248 399.304 118.827 399.867Z" fill="#0A404B"/>
<path opacity="0.7" fill-rule="evenodd" clip-rule="evenodd" d="M120.052 466.656C117.666 467.351 115.168 465.98 114.474 463.594L104.073 427.884C103.378 425.497 104.749 423 107.135 422.305C109.521 421.61 112.019 422.981 112.714 425.367L123.114 461.077C123.809 463.464 122.438 465.961 120.052 466.656Z" fill="#0A404B"/>
<path opacity="0.5" fill-rule="evenodd" clip-rule="evenodd" d="M121.883 533.176C119.563 534.068 116.96 532.91 116.068 530.591L102.716 495.864C101.824 493.545 102.981 490.941 105.301 490.049C107.62 489.157 110.224 490.315 111.116 492.634L124.468 527.361C125.36 529.68 124.203 532.284 121.883 533.176Z" fill="#0A404B"/>
<path opacity="0.3" fill-rule="evenodd" clip-rule="evenodd" d="M125.108 598.816C122.952 600.053 120.202 599.308 118.965 597.153L100.412 564.816C99.1757 562.661 99.9206 559.911 102.076 558.674C104.232 557.437 106.982 558.182 108.219 560.338L126.772 592.674C128.008 594.83 127.263 597.58 125.108 598.816Z" fill="#0A404B"/>
<path opacity="0.2" fill-rule="evenodd" clip-rule="evenodd" d="M130.698 661.419C129.027 663.259 126.181 663.396 124.341 661.724L96.7932 636.699C94.9536 635.028 94.8171 632.182 96.4882 630.342C98.1593 628.503 101.005 628.366 102.845 630.037L130.393 655.063C132.232 656.734 132.369 659.58 130.698 661.419Z" fill="#0A404B"/>
<path opacity="0.1" fill-rule="evenodd" clip-rule="evenodd" d="M136.5 714C136.5 716.485 134.485 718.5 132 718.5L96 718.5C93.5147 718.5 91.5 716.485 91.5 714C91.5 711.515 93.5147 709.5 96 709.5L132 709.5C134.485 709.5 136.5 711.515 136.5 714Z" fill="#0A404B"/>
<path fill-rule="evenodd" clip-rule="evenodd" d="M44.2469 64.2793C41.8239 64.8322 39.4114 63.3161 38.8586 60.8931L30.5661 24.5499C30.0133 22.1269 31.5293 19.7145 33.9523 19.1616C36.3753 18.6087 38.7878 20.1248 39.3406 22.5478L47.6331 58.8911C48.1859 61.3141 46.6699 63.7265 44.2469 64.2793Z" fill="#0A404B"/>
<path fill-rule="evenodd" clip-rule="evenodd" d="M44.7722 131.244C42.363 131.854 39.9153 130.396 39.3049 127.987L30.1691 91.9244C29.5588 89.5153 31.0171 87.0675 33.4262 86.4571C35.8354 85.8468 38.2832 87.3051 38.8935 89.7142L48.0293 125.776C48.6397 128.186 47.1814 130.633 44.7722 131.244Z" fill="#0A404B"/>
<path fill-rule="evenodd" clip-rule="evenodd" d="M45.4594 198.199C43.0691 198.88 40.5797 197.494 39.8989 195.103L29.7091 159.323C29.0283 156.932 30.4142 154.443 32.8044 153.762C35.1947 153.081 37.6842 154.467 38.3649 156.857L48.5548 192.638C49.2355 195.029 47.8496 197.518 45.4594 198.199Z" fill="#0A404B"/>
<path fill-rule="evenodd" clip-rule="evenodd" d="M46.2426 265.077C43.8779 265.841 41.3411 264.544 40.5765 262.179L29.1216 226.75C28.357 224.385 29.6542 221.848 32.019 221.084C34.3838 220.319 36.9206 221.616 37.6851 223.981L49.14 259.411C49.9046 261.775 48.6074 264.312 46.2426 265.077Z" fill="#0A404B"/>
<path fill-rule="evenodd" clip-rule="evenodd" d="M47.2924 331.861C44.9668 332.738 42.371 331.563 41.4945 329.237L28.353 294.371C27.4765 292.045 28.6512 289.449 30.9768 288.573C33.3024 287.696 35.8982 288.871 36.7747 291.196L49.9162 326.063C50.7927 328.389 49.618 330.985 47.2924 331.861Z" fill="#0A404B"/>
<path fill-rule="evenodd" clip-rule="evenodd" d="M48.6854 398.456C46.4218 399.482 43.7551 398.479 42.729 396.215L27.3387 362.262C26.3127 359.999 27.3159 357.332 29.5795 356.306C31.8431 355.28 34.5099 356.283 35.536 358.547L50.9262 392.5C51.9523 394.763 50.949 397.43 48.6854 398.456Z" fill="#0A404B"/>
<path opacity="0.7" fill-rule="evenodd" clip-rule="evenodd" d="M50.442 464.644C48.276 465.862 45.5322 465.094 44.3136 462.928L26.0421 430.451C24.8235 428.285 25.5915 425.542 27.7575 424.323C29.9235 423.104 32.6673 423.872 33.8859 426.038L52.1574 458.515C53.376 460.681 52.608 463.425 50.442 464.644Z" fill="#0A404B"/>
<path opacity="0.5" fill-rule="evenodd" clip-rule="evenodd" d="M52.9707 530.12C50.98 531.608 48.1601 531.201 46.6722 529.21L24.395 499.404C22.9072 497.414 23.3148 494.594 25.3055 493.106C27.2962 491.618 30.1161 492.026 31.604 494.016L53.8812 523.822C55.369 525.813 54.9614 528.633 52.9707 530.12Z" fill="#0A404B"/>
<path opacity="0.3" fill-rule="evenodd" clip-rule="evenodd" d="M56.2819 594.21C54.6157 596.054 51.7701 596.198 49.9261 594.531L22.308 569.576C20.4639 567.91 20.3198 565.064 21.986 563.22C23.6523 561.376 26.4978 561.232 28.3419 562.898L55.96 587.854C57.804 589.52 57.9482 592.366 56.2819 594.21Z" fill="#0A404B"/>
<path opacity="0.2" fill-rule="evenodd" clip-rule="evenodd" d="M60.0356 655.667C58.9787 657.916 56.2985 658.883 54.0491 657.826L20.3873 642.009C18.1379 640.952 17.1712 638.272 18.2281 636.023C19.285 633.774 21.9653 632.807 24.2146 633.864L57.8765 649.68C60.1258 650.737 61.0925 653.418 60.0356 655.667Z" fill="#0A404B"/>
<path opacity="0.1" fill-rule="evenodd" clip-rule="evenodd" d="M62.5 714C62.5 716.485 60.4853 718.5 58 718.5L22 718.5C19.5147 718.5 17.5 716.485 17.5 714C17.5 711.515 19.5147 709.5 22 709.5L58 709.5C60.4853 709.5 62.5 711.515 62.5 714Z" fill="#0A404B"/>
</g>
</g>
<defs>
<clipPath id="clip0_4176_62843">
<rect width="375" height="812" fill="white"/>
</clipPath>
</defs>
</svg>
