<svg width="24" height="24" viewBox="0 0 24 24" fill="none" xmlns="http://www.w3.org/2000/svg">
<path d="M12.4188 18.8705L11.8375 19.6843L12.4188 18.8705ZM7.84201 9.62745L13 5.94317L11.8375 4.3157L6.67953 7.99998L7.84201 9.62745ZM4 9.99998H6.67953V7.99998H4V9.99998ZM4 14V9.99998H2V14H4ZM6.67953 14H4V16H6.67953V14ZM13 18.0568L7.84201 14.3725L6.67954 16L11.8375 19.6843L13 18.0568ZM13 5.94317V18.0568H15V5.94317H13ZM11.8375 19.6843C13.1613 20.6298 15 19.6835 15 18.0568H13L11.8375 19.6843ZM6.67953 16H6.67954L7.84201 14.3725C7.50281 14.1302 7.09638 14 6.67953 14V16ZM2 14C2 15.1045 2.89543 16 4 16V14H2ZM4 7.99998C2.89543 7.99998 2 8.89541 2 9.99998H4V7.99998ZM13 5.94317V5.94317H15C15 4.31642 13.1613 3.37018 11.8375 4.3157L13 5.94317ZM6.67953 7.99998V9.99998C7.09638 9.99998 7.50281 9.86973 7.84201 9.62745L6.67953 7.99998Z" fill="#FEFCF9"/>
<path d="M17 8L17.0299 8.11943C17.6668 10.6673 17.6668 13.3327 17.0299 15.8806L17 16" stroke="#FEFCF9" stroke-width="2" stroke-linecap="round"/>
<path d="M20 5L20.0377 5.13197C21.3202 9.62084 21.3202 14.3792 20.0377 18.868L20 19" stroke="#FEFCF9" stroke-width="2" stroke-linecap="round"/>
</svg>
